<svg width="61" height="56" viewBox="0 0 61 56" fill="none" xmlns="http://www.w3.org/2000/svg">
<mask id="mask0_200_144" style="mask-type:alpha" maskUnits="userSpaceOnUse" x="0" y="0" width="61" height="56">
<rect x="0.214844" y="0.0839844" width="60" height="55" fill="#D9D9D9"/>
</mask>
<g mask="url(#mask0_200_144)">
<path d="M51.6504 18.1495C50.0463 14.9404 45.4489 14.9285 43.8329 18.1495C35.9126 34.0175 36.1766 33.2528 36.1766 34.673C36.1766 38.6906 41.3886 41.9561 47.8295 41.9561C54.2705 41.9561 59.4006 38.6896 59.4006 34.673C59.3159 33.2073 59.5253 33.881 51.6504 18.1495ZM41.1082 33.2164L47.6593 20.1068L54.2296 33.2164H41.1082ZM24.439 34.673C24.439 33.2055 24.5641 33.8764 16.6897 18.1495C15.0856 14.9404 10.4882 14.9285 8.87224 18.1495C0.951862 34.0175 1.21588 33.2528 1.21588 34.673C1.21588 38.6906 6.42785 41.9561 12.7869 41.9561C19.146 41.9561 24.439 38.6878 24.439 34.673ZM12.7769 20.1068L19.3499 33.2164H6.22756L12.7769 20.1068ZM46.2063 44.8694H33.1787V18.0402C35.3181 17.1025 36.9204 15.1725 37.4029 12.8237H47.7449C49.3535 12.8237 50.5762 11.5191 50.5762 9.91047C50.5762 8.30181 49.2716 6.99723 47.7449 6.99723H36.0555C34.7245 5.23289 32.6416 4.08398 30.2636 4.08398C27.8857 4.08398 25.7226 5.23289 24.4754 6.99723H12.786C11.1746 6.99723 9.87275 8.30181 9.87275 9.91047C9.87275 11.5191 11.1746 12.8237 12.7041 12.8237H23.0461C23.524 15.168 25.1281 17.1025 27.2675 18.0357V44.8694H14.2426C11.8292 44.8694 9.87184 46.8258 9.87184 49.2392C9.87184 50.0436 10.5241 50.6958 11.3285 50.6958H49.2006C50.005 50.6958 50.6572 50.0436 50.6572 49.2392C50.6581 46.8267 48.7008 44.8694 46.2063 44.8694Z" fill="#212121"/>
</g>
</svg>
