<svg width="83" height="51" viewBox="0 0 83 51" fill="none" xmlns="http://www.w3.org/2000/svg">
<path d="M46.347 6.208C46.347 4.79878 46.9068 3.44728 47.9033 2.45081C48.8997 1.45434 50.2512 0.894531 51.6605 0.894531C53.0697 0.894531 54.4212 1.45434 55.4177 2.45081C56.4141 3.44728 56.9739 4.79878 56.9739 6.208V45.1735C56.9739 46.5827 56.4141 47.9342 55.4177 48.9307C54.4212 49.9271 53.0697 50.487 51.6605 50.487C50.2512 50.487 48.8997 49.9271 47.9033 48.9307C46.9068 47.9342 46.347 46.5827 46.347 45.1735V6.208ZM42.8047 8.77264C35.4827 12.1378 26.7261 14.0188 18.0085 14.6387V36.7321C19.2952 36.8047 20.5801 36.9051 21.8625 37.0332C29.1349 37.7559 36.1664 39.3995 42.8047 42.5593V8.77264ZM14.4661 36.5479V14.83C12.0574 14.9256 9.51044 14.9823 7.35317 15.0177C5.47694 15.0437 3.68601 15.8057 2.36617 17.1394C1.04632 18.4732 0.303197 20.272 0.296875 22.1484L0.296875 29.2331C0.296875 33.1509 3.47079 36.3035 7.36025 36.3496C7.94595 36.3569 8.53162 36.3663 9.11724 36.3779C10.9008 36.4135 12.6839 36.4702 14.4661 36.5479ZM19.39 40.3772C20.3995 40.4516 21.4055 40.5437 22.4009 40.6535L23.2971 46.64C23.3947 47.1523 23.3779 47.6798 23.2479 48.1849C23.118 48.69 22.8782 49.1601 22.5455 49.5618C22.2129 49.9634 21.7957 50.2867 21.3237 50.5085C20.8517 50.7302 20.3365 50.8451 19.815 50.8447H17.8738C17.1853 50.8447 16.5117 50.644 15.9354 50.2671C15.3591 49.8903 14.9052 49.3536 14.6291 48.7229L9.97448 39.9379C11.9732 39.9878 13.9713 40.0634 15.9681 40.1646C17.1264 40.2249 18.2706 40.2957 19.39 40.3772Z" fill="#212121"/>
<mask id="mask0_544_657" style="mask-type:alpha" maskUnits="userSpaceOnUse" x="58" y="9" width="25" height="34">
<rect x="58.832" y="11.4277" width="21.506" height="30.8242" transform="rotate(-4.87666 58.832 11.4277)" fill="#D9D9D9"/>
</mask>
<g mask="url(#mask0_544_657)">
<path d="M69.4984 17.2613C69.9616 16.957 70.2864 16.4825 70.4024 15.9405C70.5183 15.3985 70.4162 14.8326 70.118 14.3654C69.8199 13.8982 69.3497 13.5671 68.8093 13.444C68.2689 13.3208 67.7017 13.4155 67.2306 13.7074L61.6119 17.2901C61.1486 17.5944 60.8239 18.0689 60.7079 18.6109C60.5919 19.1529 60.6941 19.7188 60.9922 20.186C61.2904 20.6533 61.7605 20.9843 62.301 21.1074C62.8414 21.2306 63.4085 21.1359 63.8797 20.844L69.4984 17.2613ZM79.502 25.3105C79.5597 25.8662 79.3945 26.422 79.0427 26.856C78.6908 27.2899 78.1811 27.5665 77.6256 27.6249L67.7417 28.6577C67.4613 28.697 67.1759 28.6795 66.9025 28.6061C66.6291 28.5328 66.3732 28.4051 66.1502 28.2307C65.9272 28.0563 65.7416 27.8388 65.6045 27.5911C65.4673 27.3435 65.3815 27.0707 65.3521 26.7891C65.3227 26.5076 65.3502 26.223 65.4332 25.9523C65.5162 25.6816 65.6528 25.4304 65.8349 25.2137C66.0171 24.997 66.241 24.8192 66.4934 24.6909C66.7457 24.5626 67.0213 24.4864 67.3038 24.4669L77.1876 23.4341C77.7433 23.3764 78.2991 23.5416 78.7331 23.8934C79.167 24.2452 79.4436 24.7549 79.502 25.3105ZM57.3577 12.8567C57.2837 11.7967 56.9523 10.7708 56.3924 9.86782C55.8324 8.96483 55.0607 8.21198 54.1442 7.67452C53.2276 7.13706 52.1938 6.83118 51.1324 6.7834C50.0709 6.73561 49.0138 6.94735 48.0527 7.40028L13.5027 23.6902C12.5314 24.1487 11.7312 24.9044 11.218 25.848C10.7047 26.7915 10.5051 27.8739 10.6479 28.9385L11.3858 34.4508C11.5185 35.4383 11.9397 36.3646 12.5968 37.1136C13.2538 37.8626 14.1173 38.4009 15.0791 38.6611L19.2846 39.7983C18.5429 42.6643 18.9615 45.7071 20.4495 48.2664C21.9375 50.8256 24.3748 52.6947 27.2324 53.468C30.09 54.2413 33.1373 53.8563 35.7128 52.3966C38.2883 50.937 40.1842 48.5205 40.989 45.6716L51.1397 48.4158C52.1457 48.6879 53.2022 48.7155 54.221 48.4963C55.2399 48.2771 56.1915 47.8174 56.9965 47.1556C57.8016 46.4937 58.4366 45.649 58.8488 44.6918C59.2609 43.7345 59.4381 42.6927 59.3657 41.653L57.3559 12.8588L57.3577 12.8567ZM36.9207 44.566C36.3862 46.3091 35.1951 47.7762 33.5991 48.6574C32.003 49.5387 30.1269 49.7651 28.367 49.2889C26.6071 48.8126 25.1012 47.671 24.1673 46.1052C23.2334 44.5393 22.9447 42.6718 23.3622 40.897L36.9207 44.566ZM62.7597 33.5527C63.1118 33.1184 63.622 32.8418 64.1781 32.7837C64.7342 32.7256 65.2906 32.8907 65.7249 33.2428L70.0916 36.7833C70.5259 37.1354 70.8025 37.6456 70.8606 38.2017C70.9187 38.7578 70.7535 39.3141 70.4014 39.7484C70.0493 40.1827 69.5391 40.4593 68.983 40.5175C68.4269 40.5756 67.8705 40.4104 67.4362 40.0583L63.0696 36.5179C62.6353 36.1657 62.3586 35.6555 62.3005 35.0995C62.2424 34.5434 62.4076 33.987 62.7597 33.5527Z" fill="#212121"/>
</g>
</svg>
