<svg width="55" height="56" viewBox="0 0 55 56" fill="none" xmlns="http://www.w3.org/2000/svg">
<mask id="mask0_193_2263" style="mask-type:alpha" maskUnits="userSpaceOnUse" x="0" y="0" width="55" height="56">
<rect y="0.894531" width="55" height="55" fill="#D9D9D9"/>
</mask>
<g mask="url(#mask0_193_2263)">
<path d="M37.3474 18.4027C37.1477 18.4018 36.9503 18.3607 36.7664 18.2815C36.5825 18.2024 36.4159 18.0869 36.2761 17.9417L25.0661 6.52597C24.784 6.23258 24.6279 5.83708 24.6321 5.42648C24.6364 5.01588 24.8006 4.62382 25.0887 4.33654C25.3768 4.04926 25.7652 3.8903 26.1684 3.89462C26.5716 3.89894 26.9566 4.06619 27.2387 4.35959L38.4638 15.7754C38.7448 16.0632 38.9026 16.4527 38.9026 16.8586C38.9026 17.2645 38.7448 17.6539 38.4638 17.9417C38.3188 18.0926 38.1448 18.2113 37.9527 18.2906C37.7606 18.3699 37.5546 18.4081 37.3474 18.4027ZM17.7184 38.3765C17.3226 38.3748 16.9433 38.2147 16.6623 37.9309L5.43717 26.5151C5.15306 26.2197 4.99584 25.8214 5.00008 25.4079C5.00433 24.9945 5.16969 24.5996 5.4598 24.3103C5.74991 24.021 6.14099 23.8609 6.54702 23.8652C6.95305 23.8695 7.34076 24.0379 7.62486 24.3334L18.8349 35.7491C19.0477 35.964 19.1928 36.2386 19.2518 36.5378C19.3107 36.837 19.2808 37.1474 19.1659 37.4292C19.051 37.7111 18.8562 37.9517 18.6065 38.1204C18.3568 38.2891 18.0634 38.3782 17.7637 38.3765H17.7184ZM32.7306 49.4542L33.4849 52.1737C33.5378 52.3751 33.5449 52.5861 33.5054 52.7906C33.466 52.9952 33.3812 53.1878 33.2574 53.3539C33.1337 53.5199 32.9743 53.6549 32.7915 53.7486C32.6086 53.8423 32.4072 53.8922 32.2025 53.8945H7.12697C6.9223 53.8922 6.72085 53.8423 6.53801 53.7486C6.35518 53.6549 6.1958 53.5199 6.07206 53.3539C5.94831 53.1878 5.86349 52.9952 5.82405 52.7906C5.78462 52.5861 5.79162 52.3751 5.84453 52.1737L6.614 49.4542C6.75543 48.9692 7.04869 48.5445 7.44909 48.245C7.84949 47.9454 8.33508 47.7873 8.83187 47.7948H30.4976C30.9958 47.789 31.4825 47.9475 31.8849 48.2465C32.2874 48.5456 32.5841 48.9693 32.7306 49.4542ZM50.1567 44.9678L29.3962 24.0414L33.9225 19.4321L23.497 8.73845L10.0087 22.4743L20.4644 33.1372L25.3075 28.2206L46.0378 49.1162C46.306 49.392 46.6257 49.6102 46.9782 49.758C47.3306 49.9058 47.7086 49.9801 48.0897 49.9766C48.662 49.9824 49.223 49.8145 49.7012 49.4944C50.1794 49.1742 50.5532 48.7164 50.7749 48.1791C50.9967 47.6418 51.0563 47.0494 50.9462 46.4775C50.8361 45.9056 50.5612 45.38 50.1567 44.9678Z" fill="#212121"/>
</g>
</svg>
