<svg width="46" height="46" viewBox="0 0 46 46" fill="none" xmlns="http://www.w3.org/2000/svg">
<path d="M4.67188 0.34375H27.1719V4.84375H4.67188V27.3437H0.171875V4.84375C0.171875 2.34625 2.17437 0.34375 4.67188 0.34375ZM13.6719 9.34375H36.1719V13.8437H13.6719V36.3438H9.17188V13.8437C9.17188 11.3462 11.1744 9.34375 13.6719 9.34375ZM22.6719 18.3438H40.6719C43.1694 18.3438 45.1719 20.3463 45.1719 22.8438V40.8438C45.1719 43.3412 43.1694 45.3438 40.6719 45.3438H22.6719C20.1744 45.3438 18.1719 43.3412 18.1719 40.8438V22.8438C18.1719 20.3463 20.1744 18.3438 22.6719 18.3438ZM27.1719 22.8438V40.8438L40.6719 31.8438L27.1719 22.8438Z" fill="#212121"/>
</svg>
