<svg width="55" height="56" viewBox="0 0 55 56" fill="none" xmlns="http://www.w3.org/2000/svg">
<mask id="mask0_193_2274" style="mask-type:alpha" maskUnits="userSpaceOnUse" x="0" y="0" width="55" height="56">
<rect y="0.894531" width="55" height="55" fill="#D9D9D9"/>
</mask>
<g mask="url(#mask0_193_2274)">
<path d="M48 18.1989C48 17.9395 47.8992 17.6903 47.7189 17.5038L32.9198 2.19939C32.7314 2.00455 32.472 1.89453 32.2009 1.89453H12.125C10.7658 1.89453 9.4622 2.45292 8.50108 3.44687C7.53995 4.44081 7 5.78888 7 7.19453V49.5945C7 51.0002 7.53995 52.3483 8.50108 53.3422C9.4622 54.3361 10.7658 54.8945 12.125 54.8945H42.875C44.2342 54.8945 45.5378 54.3361 46.4989 53.3422C47.46 52.3483 48 51.0002 48 49.5945V18.1989ZM19.8125 45.9445C19.8125 46.4968 19.3648 46.9445 18.8125 46.9445H15.6875C15.1352 46.9445 14.6875 46.4968 14.6875 45.9445V24.0945C14.6875 23.5422 15.1352 23.0945 15.6875 23.0945H18.8125C19.3648 23.0945 19.8125 23.5422 19.8125 24.0945V45.9445ZM30.0625 45.9445C30.0625 46.4968 29.6148 46.9445 29.0625 46.9445H25.9375C25.3852 46.9445 24.9375 46.4968 24.9375 45.9445V32.0445C24.9375 31.4922 25.3852 31.0445 25.9375 31.0445H29.0625C29.6148 31.0445 30.0625 31.4922 30.0625 32.0445V45.9445ZM40.3125 45.9445C40.3125 46.4968 39.8648 46.9445 39.3125 46.9445H36.1875C35.6352 46.9445 35.1875 46.4968 35.1875 45.9445V39.9945C35.1875 39.4422 35.6352 38.9945 36.1875 38.9945H39.3125C39.8648 38.9945 40.3125 39.4422 40.3125 39.9945V45.9445ZM32.625 20.4445H31.0625C30.5102 20.4445 30.0625 19.9968 30.0625 19.4445V9.66724C30.0625 8.76822 31.1564 8.32582 31.7814 8.9721L41.2358 18.7494C41.8495 19.384 41.3998 20.4445 40.517 20.4445H32.625Z" fill="#212121"/>
</g>
</svg>
