<svg width="50" height="55" viewBox="0 0 50 55" fill="none" xmlns="http://www.w3.org/2000/svg">
<mask id="mask0_561_351" style="mask-type:alpha" maskUnits="userSpaceOnUse" x="0" y="0" width="50" height="55">
<rect width="50" height="55" fill="#D9D9D9"/>
</mask>
<g mask="url(#mask0_561_351)">
<path d="M33.9609 13.4453H27.25C26.625 13.4453 26.0234 13.6744 25.5625 14.0867L17.8828 20.9593C17.875 20.9669 17.8672 20.9822 17.8594 20.9898C16.5625 22.181 16.5859 24.0824 17.6953 25.266C18.6875 26.3274 20.7734 26.61 22.0781 25.4722C22.0859 25.4646 22.1016 25.4646 22.1094 25.4569L28.3516 19.8673C28.8594 19.4168 29.6562 19.4473 30.1172 19.9437C30.5859 20.44 30.5469 21.2112 30.0391 21.6694L28 23.4944L39.375 32.5203C39.6016 32.7036 39.8047 32.9021 39.9922 33.1083V18.3324L35.7266 14.1631C35.2656 13.7049 34.625 13.4453 33.9609 13.4453ZM42.5 18.3477V35.445C42.5 36.7966 43.6172 37.8885 45 37.8885H50V18.3477H42.5ZM46.25 35.445C45.5625 35.445 45 34.8952 45 34.2232C45 33.5512 45.5625 33.0014 46.25 33.0014C46.9375 33.0014 47.5 33.5512 47.5 34.2232C47.5 34.8952 46.9375 35.445 46.25 35.445ZM0 37.8809H5C6.38281 37.8809 7.5 36.7889 7.5 35.4373V18.3477H0V37.8809ZM3.75 33.0014C4.4375 33.0014 5 33.5512 5 34.2232C5 34.8952 4.4375 35.445 3.75 35.445C3.0625 35.445 2.5 34.8952 2.5 34.2232C2.5 33.5436 3.0625 33.0014 3.75 33.0014ZM37.8047 34.4217L26.1406 25.1668L23.7969 27.2667C21.4766 29.3361 17.9219 29.1375 15.8516 26.9307C13.75 24.6857 13.9141 21.2112 16.1953 19.1648L22.5859 13.4453H16.0391C15.375 13.4453 14.7422 13.7049 14.2734 14.1631L10 18.3324V35.4297H11.4297L18.5 41.6837C20.6406 43.3865 23.7891 43.0658 25.5312 40.9735L25.5469 40.9583L26.9453 42.1418C28.1875 43.1345 30.0234 42.9436 31.0312 41.7295L33.4844 38.782L33.9062 39.1179C34.9766 39.9656 36.5547 39.8128 37.4219 38.759L38.1641 37.8656C39.0391 36.8118 38.875 35.277 37.8047 34.4217Z" fill="#212121"/>
</g>
</svg>
