<svg width="50" height="55" viewBox="0 0 50 55" fill="none" xmlns="http://www.w3.org/2000/svg">
<mask id="mask0_561_360" style="mask-type:alpha" maskUnits="userSpaceOnUse" x="0" y="0" width="50" height="55">
<rect width="50" height="55" fill="#D9D9D9"/>
</mask>
<g mask="url(#mask0_561_360)">
<path d="M43.7024 14.0484H41.4134V47.6208H43.7024C46.2203 47.6208 48.2804 45.6064 48.2804 43.1445V18.5248C48.2804 16.0628 46.2203 14.0484 43.7024 14.0484ZM2.5 18.5248V43.1445C2.5 45.6064 4.55783 47.6208 7.07804 47.6208H9.36707V14.0484H7.07804C4.55783 14.0484 2.5 16.0628 2.5 18.5248ZM33.4018 9.36175C31.843 8.6545 29.0778 7.33398 25.3467 7.33398C21.6088 7.33398 18.9375 8.6545 17.3786 9.36175V14.0484H11.6561V47.6208H39.1244V14.0484H33.4018V9.36175ZM29.9683 14.0484H20.8122V11.0583C22.0345 10.5435 23.2797 10.0175 25.3467 10.0175C27.4114 10.0175 28.7482 10.5413 29.9683 11.0583V14.0484Z" fill="#212121"/>
</g>
</svg>
