<svg width="56" height="56" viewBox="0 0 56 56" fill="none" xmlns="http://www.w3.org/2000/svg">
<mask id="mask0_200_170" style="mask-type:alpha" maskUnits="userSpaceOnUse" x="0" y="0" width="56" height="56">
<rect x="0.214844" y="0.0839844" width="55" height="55" fill="#D9D9D9"/>
</mask>
<g mask="url(#mask0_200_170)">
<path d="M48.3779 21.9026L48.3779 21.9027C47.5723 25.2671 45.1937 28.0566 42.1171 29.5283L40.7182 28.1307C38.9463 26.3604 36.5861 25.386 34.0783 25.386C33.4405 25.386 32.7899 25.4525 32.1427 25.6347L25.5494 19.041C25.5487 18.4549 25.5793 17.8745 25.6813 17.2857L25.6814 17.2857L25.6826 17.2779C26.3912 12.7631 29.8618 8.98323 34.3072 7.92069L34.3072 7.92068C36.2384 7.45889 38.1035 7.49072 39.8182 7.90253L39.8184 7.90258C40.3354 8.0265 40.536 8.70523 40.1361 9.10476L34.3501 14.8854L34.2035 15.0319V15.2392V21.507V22.007H34.7035H41.0522H41.2592L41.4056 21.8607L47.1915 16.0801C47.5923 15.6799 48.2721 15.8816 48.396 16.3972L48.396 16.3973C48.8082 18.1103 48.84 19.9734 48.3779 21.9026ZM38.1085 30.8123L38.1114 30.8151L47.9413 40.479C47.942 40.4797 47.9427 40.4804 47.9433 40.481C48.9666 41.5146 48.9637 43.1758 47.943 44.1955L43.5133 48.6212L43.5132 48.6212C42.4919 49.6418 40.8267 49.6441 39.793 48.6207C39.7927 48.6204 39.7924 48.6202 39.7922 48.6199L29.9685 38.7969L29.9683 38.7967C28.182 37.012 27.8375 34.3581 28.8955 32.2069L29.0536 31.8854L28.8001 31.6323L19.8398 22.6886L19.6934 22.5425L19.4866 22.5425L14.5254 22.5419L6.87823 12.4266L11.6327 7.74321L21.7628 15.3867V20.3403V20.5486L21.9107 20.6953L30.9391 29.6474L31.1919 29.8981L31.5115 29.7412C33.6653 28.6839 36.3222 29.0276 38.1085 30.8123ZM15.5373 48.0275L15.5371 48.0276C14.5278 49.0366 13.208 49.5408 11.8833 49.5408C10.5585 49.5408 9.23859 49.036 8.23084 48.0299C6.21199 46.0128 6.21203 42.7463 8.23097 40.7292L20.382 28.5893L24.806 33.0018C24.4421 34.795 24.661 36.6068 25.3044 38.2693L15.5373 48.0275ZM9.07391 44.6712C9.07391 46.0594 10.201 47.1848 11.5894 47.1848C12.9771 47.1848 14.1048 46.0643 14.1048 44.6712C14.1048 43.2781 12.9771 42.1576 11.5894 42.1576C10.2011 42.1576 9.07391 43.282 9.07391 44.6712Z" fill="#212121" stroke="#212121"/>
</g>
</svg>
