<svg width="65" height="61" viewBox="0 0 65 61" fill="none" xmlns="http://www.w3.org/2000/svg">
<mask id="mask0_379_128" style="mask-type:alpha" maskUnits="userSpaceOnUse" x="0" y="0" width="65" height="61">
<rect y="0.850586" width="65" height="60" fill="#D9D9D9"/>
</mask>
<g mask="url(#mask0_379_128)">
<path d="M56.1 13.6839H53.15V57.8506H56.1C59.345 57.8506 62 55.2006 62 51.9617V19.5728C62 16.3339 59.345 13.6839 56.1 13.6839ZM3 19.5728V51.9617C3 55.2006 5.65205 57.8506 8.9 57.8506H11.85V13.6839H8.9C5.65205 13.6839 3 16.3339 3 19.5728ZM42.825 7.51825C40.816 6.58781 37.2524 4.85059 32.4439 4.85059C27.6266 4.85059 24.184 6.58781 22.175 7.51825V13.6839H14.8V57.8506H50.2V13.6839H42.825V7.51825ZM38.4 13.6839H26.6V9.75014C28.1753 9.07292 29.7801 8.38097 32.4439 8.38097C35.1048 8.38097 36.8277 9.06997 38.4 9.75014V13.6839Z" fill="#212121"/>
<path d="M44.5 34.5173V31.8506H41.8333V29.1839C41.8312 28.4773 41.5496 27.8003 41.05 27.3006C40.5503 26.801 39.8733 26.5194 39.1667 26.5173H36.5V23.8506H33.8333V26.5173H31.1667V23.8506H28.5V26.5173H25.8333C25.1267 26.5194 24.4497 26.801 23.95 27.3006C23.4504 27.8003 23.1688 28.4773 23.1667 29.1839V31.8506H20.5V34.5173H23.1667V37.1839H20.5V39.8506H23.1667V42.5173C23.1688 43.2238 23.4504 43.9009 23.95 44.4005C24.4497 44.9002 25.1267 45.1818 25.8333 45.1839H28.5V47.8506H31.1667V45.1839H33.8333V47.8506H36.5V45.1839H39.1667C39.8733 45.1818 40.5503 44.9002 41.05 44.4005C41.5496 43.9009 41.8312 43.2238 41.8333 42.5173V39.8506H44.5V37.1839H41.8333V34.5173H44.5ZM39.1667 42.5173H25.8333V29.1839H39.1667V42.5173Z" fill="white"/>
<path d="M31.6452 30.5176H29.8519L27.1719 41.1842H28.5412L29.1599 38.6842H32.2479L32.8505 41.1842H34.2665L31.6452 30.5176ZM29.3399 37.6162L30.6972 31.7842H30.7585L32.0692 37.6162H29.3399ZM35.4892 30.5176H36.8225V41.1842H35.4892V30.5176Z" fill="white"/>
</g>
</svg>
