<svg width="65" height="60" viewBox="0 0 65 60" fill="none" xmlns="http://www.w3.org/2000/svg">
<mask id="mask0_379_113" style="mask-type:alpha" maskUnits="userSpaceOnUse" x="0" y="0" width="65" height="60">
<rect width="65" height="60" fill="#D9D9D9"/>
</mask>
<g mask="url(#mask0_379_113)">
<path d="M9.5 15.5C8.79167 15.5 8.19833 15.2608 7.72 14.7825C7.24 14.3025 7 13.7083 7 13V5.5C7 4.79167 7.24 4.1975 7.72 3.7175C8.19833 3.23917 8.79167 3 9.5 3H17C17.7083 3 18.3025 3.23917 18.7825 3.7175C19.2608 4.1975 19.5 4.79167 19.5 5.5C19.5 6.20833 19.2608 6.80167 18.7825 7.28C18.3025 7.76 17.7083 8 17 8H12V13C12 13.7083 11.7608 14.3025 11.2825 14.7825C10.8025 15.2608 10.2083 15.5 9.5 15.5ZM54.5 15.5C53.7917 15.5 53.1983 15.2608 52.72 14.7825C52.24 14.3025 52 13.7083 52 13V8H47C46.2917 8 45.6983 7.76 45.22 7.28C44.74 6.80167 44.5 6.20833 44.5 5.5C44.5 4.79167 44.74 4.1975 45.22 3.7175C45.6983 3.23917 46.2917 3 47 3H54.5C55.2083 3 55.8017 3.23917 56.28 3.7175C56.76 4.1975 57 4.79167 57 5.5V13C57 13.7083 56.76 14.3025 56.28 14.7825C55.8017 15.2608 55.2083 15.5 54.5 15.5ZM9.5 58C8.79167 58 8.19833 57.76 7.72 57.28C7.24 56.8017 7 56.2083 7 55.5V48C7 47.2917 7.24 46.6983 7.72 46.22C8.19833 45.74 8.79167 45.5 9.5 45.5C10.2083 45.5 10.8025 45.74 11.2825 46.22C11.7608 46.6983 12 47.2917 12 48V53H17C17.7083 53 18.3025 53.24 18.7825 53.72C19.2608 54.1983 19.5 54.7917 19.5 55.5C19.5 56.2083 19.2608 56.8017 18.7825 57.28C18.3025 57.76 17.7083 58 17 58H9.5ZM47 58C46.2917 58 45.6983 57.76 45.22 57.28C44.74 56.8017 44.5 56.2083 44.5 55.5C44.5 54.7917 44.74 54.1983 45.22 53.72C45.6983 53.24 46.2917 53 47 53H52V48C52 47.2917 52.24 46.6983 52.72 46.22C53.1983 45.74 53.7917 45.5 54.5 45.5C55.2083 45.5 55.8017 45.74 56.28 46.22C56.76 46.6983 57 47.2917 57 48V55.5C57 56.2083 56.76 56.8017 56.28 57.28C55.8017 57.76 55.2083 58 54.5 58H47ZM19.5 50.5C18.125 50.5 16.9483 50.0108 15.97 49.0325C14.99 48.0525 14.5 46.875 14.5 45.5V15.5C14.5 14.125 14.99 12.9483 15.97 11.97C16.9483 10.99 18.125 10.5 19.5 10.5H44.5C45.875 10.5 47.0525 10.99 48.0325 11.97C49.0108 12.9483 49.5 14.125 49.5 15.5V45.5C49.5 46.875 49.0108 48.0525 48.0325 49.0325C47.0525 50.0108 45.875 50.5 44.5 50.5H19.5ZM27 25.5H37C37.7083 25.5 38.3025 25.26 38.7825 24.78C39.2608 24.3017 39.5 23.7083 39.5 23C39.5 22.2917 39.2608 21.6975 38.7825 21.2175C38.3025 20.7392 37.7083 20.5 37 20.5H27C26.2917 20.5 25.6983 20.7392 25.22 21.2175C24.74 21.6975 24.5 22.2917 24.5 23C24.5 23.7083 24.74 24.3017 25.22 24.78C25.6983 25.26 26.2917 25.5 27 25.5ZM27 33H37C37.7083 33 38.3025 32.76 38.7825 32.28C39.2608 31.8017 39.5 31.2083 39.5 30.5C39.5 29.7917 39.2608 29.1975 38.7825 28.7175C38.3025 28.2392 37.7083 28 37 28H27C26.2917 28 25.6983 28.2392 25.22 28.7175C24.74 29.1975 24.5 29.7917 24.5 30.5C24.5 31.2083 24.74 31.8017 25.22 32.28C25.6983 32.76 26.2917 33 27 33ZM27 40.5H37C37.7083 40.5 38.3025 40.26 38.7825 39.78C39.2608 39.3017 39.5 38.7083 39.5 38C39.5 37.2917 39.2608 36.6975 38.7825 36.2175C38.3025 35.7392 37.7083 35.5 37 35.5H27C26.2917 35.5 25.6983 35.7392 25.22 36.2175C24.74 36.6975 24.5 37.2917 24.5 38C24.5 38.7083 24.74 39.3017 25.22 39.78C25.6983 40.26 26.2917 40.5 27 40.5Z" fill="#212121"/>
<rect x="14" y="10" width="37" height="41" rx="5" fill="white"/>
<path d="M15 15C15 12.2386 17.2386 10 20 10H43C45.7614 10 48 12.2386 48 15V46C48 48.7614 45.7614 51 43 51H20C17.2386 51 15 48.7614 15 46V15ZM24.4286 19.84H38.5714H24.4286Z" fill="#212121"/>
<path d="M24.4286 29.68H38.5714M24.4286 39.52H32.2857M24.4286 19.84H38.5714M20 51H43C45.7614 51 48 48.7614 48 46V15C48 12.2386 45.7614 10 43 10H20C17.2386 10 15 12.2386 15 15V46C15 48.7614 17.2386 51 20 51Z" stroke="white" stroke-width="3.5" stroke-linecap="round" stroke-linejoin="round"/>
</g>
</svg>
