<svg width="66" height="60" viewBox="0 0 66 60" fill="none" xmlns="http://www.w3.org/2000/svg">
<mask id="mask0_379_143" style="mask-type:alpha" maskUnits="userSpaceOnUse" x="0" y="0" width="66" height="60">
<rect x="0.65625" width="65" height="60" fill="#D9D9D9"/>
</mask>
<g mask="url(#mask0_379_143)">
<path d="M38.1024 0V16.6304C38.1024 18.1007 38.6865 19.5107 39.7261 20.5503C40.7657 21.5899 42.1757 22.1739 43.6459 22.1739H60.2763V49.8913C60.2763 51.3615 59.6923 52.7715 58.6527 53.8111C57.6131 54.8507 56.2031 55.4348 54.7328 55.4348H35.8573C38.7261 52.4485 40.4786 48.5651 40.8198 44.4381C41.1611 40.3112 40.0702 36.1927 37.7309 32.7757C35.3915 29.3588 31.9465 26.852 27.9756 25.6773C24.0047 24.5026 19.7503 24.7317 15.9285 26.326V5.54348C15.9285 4.07326 16.5125 2.66325 17.5521 1.62365C18.5917 0.584043 20.0018 0 21.472 0H38.1024ZM42.26 1.38587V16.6304C42.26 16.998 42.406 17.3505 42.6659 17.6104C42.9258 17.8703 43.2783 18.0163 43.6459 18.0163H58.8905L42.26 1.38587ZM7.61328 42.962C7.61328 44.9639 8.00759 46.9462 8.7737 48.7958C9.53982 50.6454 10.6627 52.3259 12.0783 53.7415C13.4939 55.1571 15.1744 56.28 17.024 57.0461C18.8736 57.8122 20.8559 58.2065 22.8578 58.2065C24.8598 58.2065 26.8421 57.8122 28.6917 57.0461C30.5412 56.28 32.2218 55.1571 33.6374 53.7415C35.053 52.3259 36.1759 50.6454 36.942 48.7958C37.7081 46.9462 38.1024 44.9639 38.1024 42.962C38.1024 38.9188 36.4963 35.0413 33.6374 32.1824C30.7785 29.3235 26.901 27.7174 22.8578 27.7174C18.8147 27.7174 14.9372 29.3235 12.0783 32.1824C9.2194 35.0413 7.61328 38.9188 7.61328 42.962ZM31.1731 33.2609C31.5406 33.2609 31.8931 33.4069 32.153 33.6668C32.4129 33.9267 32.5589 34.2792 32.5589 34.6467V40.1902C32.5589 40.5578 32.4129 40.9103 32.153 41.1702C31.8931 41.4301 31.5406 41.5761 31.1731 41.5761H25.6296C25.262 41.5761 24.9095 41.4301 24.6496 41.1702C24.3897 40.9103 24.2437 40.5578 24.2437 40.1902C24.2437 39.8227 24.3897 39.4702 24.6496 39.2103C24.9095 38.9504 25.262 38.8043 25.6296 38.8043H28.4013C27.7565 37.9431 26.9196 37.2441 25.9573 36.763C24.995 36.2818 23.9337 36.0317 22.8578 36.0326C20.549 36.0326 18.5007 37.1607 17.2395 38.9041C17.1347 39.0561 17.0006 39.1856 16.845 39.285C16.6895 39.3844 16.5156 39.4517 16.3337 39.483C16.1517 39.5143 15.9654 39.509 15.7855 39.4672C15.6057 39.4255 15.436 39.3483 15.2864 39.2401C15.1368 39.1318 15.0104 38.9948 14.9145 38.8371C14.8186 38.6793 14.7552 38.504 14.728 38.3214C14.7008 38.1388 14.7104 37.9526 14.7561 37.7738C14.8019 37.5949 14.8829 37.427 14.9944 37.2799C15.893 36.0349 17.0745 35.0213 18.4417 34.3225C19.8088 33.6238 21.3225 33.2599 22.8578 33.2609C25.5742 33.2609 28.0271 34.3779 29.7872 36.1712V34.6467C29.7872 34.2792 29.9332 33.9267 30.1931 33.6668C30.453 33.4069 30.8055 33.2609 31.1731 33.2609ZM15.9285 49.7527V51.2772C15.9285 51.6447 15.7825 51.9972 15.5226 52.2571C15.2627 52.517 14.9102 52.663 14.5426 52.663C14.1751 52.663 13.8226 52.517 13.5627 52.2571C13.3028 51.9972 13.1568 51.6447 13.1568 51.2772V45.7337C13.1568 45.3661 13.3028 45.0136 13.5627 44.7537C13.8226 44.4938 14.1751 44.3478 14.5426 44.3478H20.0861C20.4537 44.3478 20.8062 44.4938 21.0661 44.7537C21.326 45.0136 21.472 45.3661 21.472 45.7337C21.472 46.1013 21.326 46.4538 21.0661 46.7137C20.8062 46.9736 20.4537 47.1196 20.0861 47.1196H17.3144C18.5783 48.8048 20.5933 49.8913 22.8578 49.8913C24.981 49.8913 26.8824 48.9378 28.1546 47.43C28.3938 47.1562 28.7309 46.9873 29.0934 46.9597C29.4559 46.9321 29.8147 47.0481 30.0925 47.2826C30.3703 47.5171 30.5448 47.8514 30.5784 48.2134C30.6121 48.5754 30.5021 48.9361 30.2723 49.2178C29.3625 50.2981 28.2274 51.1663 26.9466 51.7614C25.6657 52.3566 24.2702 52.6643 22.8578 52.663C21.5671 52.6648 20.289 52.4082 19.099 51.9084C17.9089 51.4085 16.8309 50.6756 15.9285 49.7527Z" fill="#212121"/>
<path d="M28.8828 30H49.2054H28.8828Z" fill="#212121"/>
<path d="M28.8828 40.1613H49.2054M28.8828 50.3226H35.9957M28.8828 30H49.2054" stroke="white" stroke-width="5.5" stroke-linecap="round" stroke-linejoin="round"/>
<rect x="5.65625" y="26.7393" width="33.2609" height="33.2609" rx="16.6304" fill="white"/>
<path d="M22.945 38.9585C22.0016 38.9585 21.1181 39.3474 20.4492 40.0582C19.7835 40.769 19.4143 41.7079 19.4143 42.7104C19.4143 43.7129 19.7835 44.6517 20.4492 45.3626C21.1181 46.07 22.0016 46.4623 22.945 46.4623C23.8884 46.4623 24.7719 46.07 25.4408 45.3626C26.1065 44.6517 26.4757 43.7129 26.4757 42.7104C26.4757 41.7079 26.1065 40.769 25.4408 40.0582C25.1141 39.7084 24.7252 39.431 24.2968 39.2422C23.8683 39.0534 23.4088 38.9569 22.945 38.9585ZM35.954 46.8546L33.8905 44.9803C33.9883 44.3433 34.0388 43.6928 34.0388 43.0457C34.0388 42.3986 33.9883 41.7447 33.8905 41.111L35.954 39.2367C36.1099 39.0949 36.2214 38.9061 36.2738 38.6952C36.3263 38.4844 36.317 38.2616 36.2474 38.0565L36.219 37.9693C35.6511 36.2818 34.8002 34.7175 33.7075 33.3523L33.6507 33.2819C33.518 33.1161 33.3411 32.997 33.1434 32.9401C32.9457 32.8832 32.7365 32.8914 32.5432 32.9634L29.9811 33.9324C29.0346 33.1076 27.9807 32.4571 26.8386 32.0045L26.3432 29.1578C26.3058 28.9434 26.2079 28.7461 26.0625 28.5922C25.9171 28.4383 25.7311 28.335 25.5291 28.2961L25.4439 28.2794C23.8032 27.9642 22.0742 27.9642 20.4335 28.2794L20.3483 28.2961C20.1463 28.335 19.9603 28.4383 19.8149 28.5922C19.6695 28.7461 19.5716 28.9434 19.5342 29.1578L19.0357 32.0179C17.9043 32.4741 16.8504 33.123 15.9152 33.9391L13.3342 32.9634C13.141 32.8908 12.9316 32.8824 12.7338 32.9393C12.5359 32.9962 12.3591 33.1157 12.2267 33.2819L12.1699 33.3523C11.0791 34.719 10.2284 36.2828 9.65838 37.9693L9.62998 38.0565C9.488 38.4756 9.60474 38.945 9.92342 39.2367L12.0122 41.1312C11.9144 41.7615 11.867 42.4053 11.867 43.0423C11.867 43.6861 11.9144 44.3299 12.0122 44.9535L9.92973 46.8479C9.77385 46.9897 9.66228 47.1786 9.60986 47.3894C9.55745 47.6002 9.56667 47.823 9.63629 48.0282L9.66469 48.1153C10.2358 49.8019 11.0782 51.361 12.1762 52.7323L12.233 52.8027C12.3657 52.9685 12.5426 53.0877 12.7403 53.1446C12.938 53.2014 13.1473 53.1933 13.3405 53.1213L15.9215 52.1456C16.8617 52.967 17.9093 53.6175 19.042 54.0668L19.5405 56.9268C19.5779 57.1413 19.6758 57.3386 19.8212 57.4925C19.9666 57.6464 20.1526 57.7497 20.3546 57.7886L20.4398 57.8053C22.0966 58.1222 23.7934 58.1222 25.4503 57.8053L25.5354 57.7886C25.7374 57.7497 25.9234 57.6464 26.0688 57.4925C26.2142 57.3386 26.3121 57.1413 26.3495 56.9268L26.8449 54.0802C27.9871 53.6242 29.0409 52.9771 29.9875 52.1523L32.5495 53.1213C32.7427 53.1939 32.9521 53.2023 33.15 53.1454C33.3478 53.0885 33.5246 52.969 33.657 52.8027L33.7138 52.7323C34.8118 51.3543 35.6542 49.8019 36.2253 48.1153L36.2537 48.0282C36.3894 47.6124 36.2727 47.1463 35.954 46.8546ZM22.945 48.6049C19.8813 48.6049 17.3981 45.9661 17.3981 42.7104C17.3981 39.4547 19.8813 36.8159 22.945 36.8159C26.0087 36.8159 28.4919 39.4547 28.4919 42.7104C28.4919 45.9661 26.0087 48.6049 22.945 48.6049Z" fill="#212121"/>
</g>
</svg>
