<svg width="66" height="60" viewBox="0 0 66 60" fill="none" xmlns="http://www.w3.org/2000/svg">
<mask id="mask0_379_158" style="mask-type:alpha" maskUnits="userSpaceOnUse" x="0" y="0" width="66" height="60">
<rect x="0.65625" width="65" height="60" fill="#D9D9D9"/>
</mask>
<g mask="url(#mask0_379_158)">
<path d="M35.434 1V17.858C35.4337 18.5962 35.5771 19.3272 35.8561 20.0093C36.1351 20.6914 36.5443 21.3112 37.0602 21.8333C37.5761 22.3554 38.1887 22.7696 38.8629 23.0522C39.5371 23.3347 40.2598 23.4802 40.9896 23.4802H57.6562V51.5797C57.6562 53.07 57.0709 54.4993 56.0291 55.5531C54.9872 56.607 53.5741 57.199 52.1007 57.199H27.1007V46.8847C28.8141 44.7435 29.7893 42.0949 29.8779 39.3416C29.9666 36.5884 29.1638 33.8812 27.5917 31.6318C26.0196 29.3823 23.7642 27.7138 21.1686 26.8799C18.5729 26.046 15.779 26.0923 13.2118 27.0119V6.61934C13.2118 5.129 13.7971 3.6997 14.839 2.64587C15.8809 1.59204 17.2939 1 18.7674 1H35.434ZM39.6007 2.40483V17.858C39.6007 18.2306 39.747 18.5879 40.0075 18.8514C40.268 19.1148 40.6212 19.2629 40.9896 19.2629H56.2674L39.6007 2.40483ZM27.1007 38.9362C27.1007 40.2276 26.8492 41.5063 26.3606 42.6994C25.872 43.8925 25.1559 44.9766 24.2531 45.8897C23.3503 46.8029 22.2786 47.5272 21.099 48.0214C19.9195 48.5156 18.6552 48.77 17.3785 48.77C16.1017 48.77 14.8375 48.5156 13.6579 48.0214C12.4784 47.5272 11.4066 46.8029 10.5038 45.8897C9.60103 44.9766 8.8849 43.8925 8.39631 42.6994C7.90772 41.5063 7.65625 40.2276 7.65625 38.9362C7.65625 36.3281 8.68055 33.8268 10.5038 31.9826C12.3271 30.1384 14.8 29.1023 17.3785 29.1023C19.957 29.1023 22.4298 30.1384 24.2531 31.9826C26.0764 33.8268 27.1007 36.3281 27.1007 38.9362ZM10.434 49.4499V58.0026C10.4335 58.3973 10.5488 58.7833 10.7653 59.1118C10.9818 59.4402 11.2898 59.6963 11.6503 59.8476C12.0107 59.9989 12.4075 60.0387 12.7903 59.9618C13.1731 59.885 13.5247 59.6949 13.8007 59.4158L17.3785 55.797L20.9563 59.4158C21.2322 59.6949 21.5839 59.885 21.9667 59.9618C22.3495 60.0387 22.7462 59.9989 23.1067 59.8476C23.4671 59.6963 23.7751 59.4402 23.9916 59.1118C24.2081 58.7833 24.3234 58.3973 24.3229 58.0026V49.4499C22.2688 50.8421 19.8511 51.5835 17.3785 51.5797C14.9058 51.584 12.488 50.8425 10.434 49.4499Z" fill="#212121"/>
<path d="M29.1562 32H47.6562H29.1562Z" fill="#212121"/>
<path d="M30.6562 42H45.1562M29.1562 32H47.6562" stroke="white" stroke-width="5.5" stroke-linecap="round" stroke-linejoin="round"/>
</g>
</svg>
