<svg width="55" height="56" viewBox="0 0 55 56" fill="none" xmlns="http://www.w3.org/2000/svg">
<mask id="mask0_193_2285" style="mask-type:alpha" maskUnits="userSpaceOnUse" x="0" y="0" width="55" height="56">
<rect y="0.894531" width="55" height="55" fill="#D9D9D9"/>
</mask>
<g mask="url(#mask0_193_2285)">
<path d="M53 26.1168V20.5612H47.4444V15.0056C47.44 13.5336 46.8533 12.123 45.8124 11.0821C44.7715 10.0412 43.361 9.45448 41.8889 9.45009H36.3333V3.89453H30.7778V9.45009H25.2222V3.89453H19.6667V9.45009H14.1111C12.639 9.45448 11.2285 10.0412 10.1876 11.0821C9.14668 12.123 8.55995 13.5336 8.55556 15.0056V20.5612H3V26.1168H8.55556V31.6723H3V37.2279H8.55556V42.7834C8.55995 44.2555 9.14668 45.666 10.1876 46.7069C11.2285 47.7479 12.639 48.3346 14.1111 48.339H19.6667V53.8945H25.2222V48.339H30.7778V53.8945H36.3333V48.339H41.8889C43.361 48.3346 44.7715 47.7479 45.8124 46.7069C46.8533 45.666 47.44 44.2555 47.4444 42.7834V37.2279H53V31.6723H47.4444V26.1168H53ZM41.8889 42.7834H14.1111V15.0056H41.8889V42.7834Z" fill="#212121"/>
<path d="M26.1179 17.5312H22.317L16.6367 40.2585H19.539L20.8503 34.9318H27.3953L28.6726 40.2585H31.6738L26.1179 17.5312ZM21.2318 32.6563L24.1086 20.2301H24.2386L27.0166 32.6563H21.2318ZM34.2653 17.5312H37.0913V40.2585H34.2653V17.5312Z" fill="#212121"/>
</g>
</svg>
