<svg width="50" height="55" viewBox="0 0 50 55" fill="none" xmlns="http://www.w3.org/2000/svg">
<mask id="mask0_561_189" style="mask-type:alpha" maskUnits="userSpaceOnUse" x="0" y="0" width="50" height="55">
<rect width="50" height="55" fill="#D9D9D9"/>
</mask>
<g mask="url(#mask0_561_189)">
<path d="M4.71154 14.3617C4.08494 14.3617 3.56006 14.1571 3.13692 13.7479C2.71231 13.3372 2.5 12.8289 2.5 12.2229V5.80671C2.5 5.20073 2.71231 4.69243 3.13692 4.28179C3.56006 3.87257 4.08494 3.66797 4.71154 3.66797H11.3462C11.9728 3.66797 12.4984 3.87257 12.923 4.28179C13.3461 4.69243 13.5577 5.20073 13.5577 5.80671C13.5577 6.41269 13.3461 6.92028 12.923 7.32949C12.4984 7.74013 11.9728 7.94545 11.3462 7.94545H6.92308V12.2229C6.92308 12.8289 6.71151 13.3372 6.28837 13.7479C5.86375 14.1571 5.33814 14.3617 4.71154 14.3617ZM44.5192 14.3617C43.8926 14.3617 43.3678 14.1571 42.9446 13.7479C42.52 13.3372 42.3077 12.8289 42.3077 12.2229V7.94545H37.8846C37.258 7.94545 36.7331 7.74013 36.31 7.32949C35.8854 6.92028 35.6731 6.41269 35.6731 5.80671C35.6731 5.20073 35.8854 4.69243 36.31 4.28179C36.7331 3.87257 37.258 3.66797 37.8846 3.66797H44.5192C45.1458 3.66797 45.6707 3.87257 46.0938 4.28179C46.5185 4.69243 46.7308 5.20073 46.7308 5.80671V12.2229C46.7308 12.8289 46.5185 13.3372 46.0938 13.7479C45.6707 14.1571 45.1458 14.3617 44.5192 14.3617ZM4.71154 50.7203C4.08494 50.7203 3.56006 50.515 3.13692 50.1043C2.71231 49.6951 2.5 49.1875 2.5 48.5815V42.1653C2.5 41.5593 2.71231 41.0518 3.13692 40.6425C3.56006 40.2319 4.08494 40.0266 4.71154 40.0266C5.33814 40.0266 5.86375 40.2319 6.28837 40.6425C6.71151 41.0518 6.92308 41.5593 6.92308 42.1653V46.4428H11.3462C11.9728 46.4428 12.4984 46.6481 12.923 47.0588C13.3461 47.468 13.5577 47.9756 13.5577 48.5815C13.5577 49.1875 13.3461 49.6951 12.923 50.1043C12.4984 50.515 11.9728 50.7203 11.3462 50.7203H4.71154ZM37.8846 50.7203C37.258 50.7203 36.7331 50.515 36.31 50.1043C35.8854 49.6951 35.6731 49.1875 35.6731 48.5815C35.6731 47.9756 35.8854 47.468 36.31 47.0588C36.7331 46.6481 37.258 46.4428 37.8846 46.4428H42.3077V42.1653C42.3077 41.5593 42.52 41.0518 42.9446 40.6425C43.3678 40.2319 43.8926 40.0266 44.5192 40.0266C45.1458 40.0266 45.6707 40.2319 46.0938 40.6425C46.5185 41.0518 46.7308 41.5593 46.7308 42.1653V48.5815C46.7308 49.1875 46.5185 49.6951 46.0938 50.1043C45.6707 50.515 45.1458 50.7203 44.5192 50.7203H37.8846ZM13.5577 44.3041C12.3413 44.3041 11.3004 43.8856 10.435 43.0486C9.56808 42.2102 9.13461 41.2029 9.13461 40.0266V14.3617C9.13461 13.1854 9.56808 12.1787 10.435 11.3418C11.3004 10.5034 12.3413 10.0842 13.5577 10.0842H35.6731C36.8894 10.0842 37.9311 10.5034 38.798 11.3418C39.6634 12.1787 40.0961 13.1854 40.0961 14.3617V40.0266C40.0961 41.2029 39.6634 42.2102 38.798 43.0486C37.9311 43.8856 36.8894 44.3041 35.6731 44.3041H13.5577ZM20.1923 22.9166H29.0385C29.6651 22.9166 30.1907 22.7113 30.6153 22.3007C31.0384 21.8915 31.25 21.3839 31.25 20.7779C31.25 20.1719 31.0384 19.6636 30.6153 19.253C30.1907 18.8438 29.6651 18.6392 29.0385 18.6392H20.1923C19.5657 18.6392 19.0408 18.8438 18.6177 19.253C18.1931 19.6636 17.9808 20.1719 17.9808 20.7779C17.9808 21.3839 18.1931 21.8915 18.6177 22.3007C19.0408 22.7113 19.5657 22.9166 20.1923 22.9166ZM20.1923 29.3329H29.0385C29.6651 29.3329 30.1907 29.1276 30.6153 28.7169C31.0384 28.3077 31.25 27.8001 31.25 27.1941C31.25 26.5882 31.0384 26.0798 30.6153 25.6692C30.1907 25.26 29.6651 25.0554 29.0385 25.0554H20.1923C19.5657 25.0554 19.0408 25.26 18.6177 25.6692C18.1931 26.0798 17.9808 26.5882 17.9808 27.1941C17.9808 27.8001 18.1931 28.3077 18.6177 28.7169C19.0408 29.1276 19.5657 29.3329 20.1923 29.3329ZM20.1923 35.7491H29.0385C29.6651 35.7491 30.1907 35.5438 30.6153 35.1331C31.0384 34.7239 31.25 34.2163 31.25 33.6104C31.25 33.0044 31.0384 32.4961 30.6153 32.0854C30.1907 31.6762 29.6651 31.4716 29.0385 31.4716H20.1923C19.5657 31.4716 19.0408 31.6762 18.6177 32.0854C18.1931 32.4961 17.9808 33.0044 17.9808 33.6104C17.9808 34.2163 18.1931 34.7239 18.6177 35.1331C19.0408 35.5438 19.5657 35.7491 20.1923 35.7491Z" fill="#212121"/>
<rect x="8.69141" y="9.6875" width="32.7308" height="35.0778" rx="3.55729" fill="white"/>
<path d="M9.5744 13.2448C9.5744 11.2802 11.1671 9.6875 13.1317 9.6875H35.2094C37.1741 9.6875 38.7667 11.2802 38.7667 13.2448V41.208C38.7667 43.1726 37.1741 44.7653 35.2094 44.7653H13.1317C11.1671 44.7653 9.5744 43.1726 9.5744 41.208V13.2448ZM17.9151 18.1062H30.4261H17.9151Z" fill="#212121"/>
<path d="M17.9151 26.5248H30.4261M17.9151 34.9435H24.8656M17.9151 18.1062H30.4261M13.1317 44.7653H35.2094C37.1741 44.7653 38.7667 43.1726 38.7667 41.208V13.2448C38.7667 11.2802 37.1741 9.6875 35.2094 9.6875H13.1317C11.1671 9.6875 9.5744 11.2802 9.5744 13.2448V41.208C9.5744 43.1726 11.1671 44.7653 13.1317 44.7653Z" stroke="white" stroke-width="2.4901" stroke-linecap="round" stroke-linejoin="round"/>
</g>
</svg>
