<svg width="50" height="55" viewBox="0 0 50 55" fill="none" xmlns="http://www.w3.org/2000/svg">
<mask id="mask0_561_196" style="mask-type:alpha" maskUnits="userSpaceOnUse" x="0" y="0" width="50" height="55">
<rect width="50" height="55" fill="#D9D9D9"/>
</mask>
<g mask="url(#mask0_561_196)">
<path d="M29.9477 1.22266V15.4499C29.9477 16.7077 30.4644 17.914 31.384 18.8033C32.3037 19.6927 33.551 20.1924 34.8516 20.1924H49.5631V43.9045C49.5631 45.1623 49.0464 46.3685 48.1268 47.2579C47.2071 48.1473 45.9598 48.6469 44.6593 48.6469H27.9617C30.4994 46.0922 32.0497 42.7699 32.3516 39.2393C32.6535 35.7087 31.6885 32.1854 29.619 29.2622C27.5496 26.339 24.5021 24.1945 20.9894 23.1895C17.4766 22.1846 13.7132 22.3805 10.3323 23.7444V5.96508C10.3323 4.70731 10.849 3.50106 11.7686 2.61168C12.6883 1.7223 13.9356 1.22266 15.2362 1.22266H29.9477ZM33.6256 2.40826V15.4499C33.6256 15.7644 33.7548 16.0659 33.9847 16.2883C34.2146 16.5106 34.5264 16.6355 34.8516 16.6355H48.3371L33.6256 2.40826ZM2.97656 37.9765C2.97656 39.6891 3.32538 41.385 4.00309 42.9673C4.6808 44.5496 5.67414 45.9873 6.9264 47.1983C8.17865 48.4094 9.66529 49.37 11.3014 50.0254C12.9376 50.6808 14.6912 51.0181 16.4621 51.0181C18.2331 51.0181 19.9867 50.6808 21.6228 50.0254C23.259 49.37 24.7456 48.4094 25.9979 47.1983C27.2501 45.9873 28.2435 44.5496 28.9212 42.9673C29.5989 41.385 29.9477 39.6891 29.9477 37.9765C29.9477 34.5176 28.5269 31.2004 25.9979 28.7546C23.4688 26.3088 20.0387 24.9348 16.4621 24.9348C12.8855 24.9348 9.45543 26.3088 6.9264 28.7546C4.39736 31.2004 2.97656 34.5176 2.97656 37.9765ZM23.8179 29.6772C24.1431 29.6772 24.4549 29.8021 24.6848 30.0245C24.9147 30.2468 25.0439 30.5484 25.0439 30.8628V35.6053C25.0439 35.9197 24.9147 36.2213 24.6848 36.4436C24.4549 36.6659 24.1431 36.7909 23.8179 36.7909H18.9141C18.5889 36.7909 18.2771 36.6659 18.0472 36.4436C17.8173 36.2213 17.6881 35.9197 17.6881 35.6053C17.6881 35.2908 17.8173 34.9892 18.0472 34.7669C18.2771 34.5446 18.5889 34.4196 18.9141 34.4196H21.366C20.7955 33.6829 20.0553 33.0849 19.204 32.6733C18.3527 32.2616 17.4139 32.0477 16.4621 32.0484C14.4197 32.0484 12.6077 33.0135 11.4921 34.505C11.3994 34.635 11.2807 34.7458 11.1431 34.8308C11.0055 34.9159 10.8517 34.9735 10.6907 35.0003C10.5298 35.027 10.3649 35.0224 10.2058 34.9867C10.0468 34.951 9.89665 34.885 9.76434 34.7924C9.63202 34.6998 9.52016 34.5826 9.43533 34.4477C9.3505 34.3127 9.29441 34.1627 9.27035 34.0065C9.24629 33.8503 9.25474 33.691 9.29521 33.538C9.33569 33.385 9.40736 33.2413 9.50603 33.1155C10.3009 32.0504 11.3461 31.1833 12.5555 30.5855C13.7649 29.9877 15.1039 29.6764 16.4621 29.6772C18.865 29.6772 21.035 30.6328 22.5919 32.167V30.8628C22.5919 30.5484 22.7211 30.2468 22.951 30.0245C23.1809 29.8021 23.4928 29.6772 23.8179 29.6772ZM10.3323 43.7859V45.0901C10.3323 45.4046 10.2032 45.7061 9.97326 45.9285C9.74334 46.1508 9.43152 46.2757 9.10637 46.2757C8.78122 46.2757 8.4694 46.1508 8.23948 45.9285C8.00957 45.7061 7.88041 45.4046 7.88041 45.0901V40.3477C7.88041 40.0332 8.00957 39.7317 8.23948 39.5093C8.4694 39.287 8.78122 39.1621 9.10637 39.1621H14.0102C14.3354 39.1621 14.6472 39.287 14.8771 39.5093C15.107 39.7317 15.2362 40.0332 15.2362 40.3477C15.2362 40.6621 15.107 40.9637 14.8771 41.186C14.6472 41.4084 14.3354 41.5333 14.0102 41.5333H11.5583C12.6764 42.975 14.4589 43.9045 16.4621 43.9045C18.3403 43.9045 20.0223 43.0888 21.1478 41.7989C21.3593 41.5646 21.6575 41.4201 21.9782 41.3965C22.2989 41.3729 22.6163 41.4722 22.862 41.6728C23.1078 41.8734 23.2622 42.1594 23.2919 42.4691C23.3216 42.7788 23.2244 43.0873 23.021 43.3283C22.2162 44.2525 21.2121 44.9952 20.0791 45.5044C18.946 46.0136 17.7115 46.2768 16.4621 46.2757C15.3203 46.2772 14.1897 46.0577 13.137 45.6301C12.0842 45.2025 11.1306 44.5755 10.3323 43.7859Z" fill="#212121"/>
<path d="M21.7969 26.9199H39.7733H21.7969Z" fill="#212121"/>
<path d="M21.7969 35.6129H39.7733M21.7969 44.3058H28.0886M21.7969 26.9199H39.7733" stroke="white" stroke-width="3.91302" stroke-linecap="round" stroke-linejoin="round"/>
<rect x="1.25" y="24.1309" width="29.4231" height="28.4565" rx="14.2283" fill="white"/>
<path d="M16.5385 34.5511C15.7039 34.5511 14.9224 34.8838 14.3307 35.4919C13.7418 36.1 13.4152 36.9032 13.4152 37.7608C13.4152 38.6185 13.7418 39.4216 14.3307 40.0297C14.9224 40.635 15.7039 40.9706 16.5385 40.9706C17.3731 40.9706 18.1546 40.635 18.7463 40.0297C19.3352 39.4216 19.6618 38.6185 19.6618 37.7608C19.6618 36.9032 19.3352 36.1 18.7463 35.4919C18.4573 35.1926 18.1133 34.9553 17.7343 34.7938C17.3553 34.6323 16.9488 34.5498 16.5385 34.5511ZM28.0464 41.3062L26.221 39.7027C26.3075 39.1577 26.3522 38.6013 26.3522 38.0477C26.3522 37.4941 26.3075 36.9347 26.221 36.3926L28.0464 34.7891C28.1843 34.6678 28.283 34.5062 28.3294 34.3259C28.3758 34.1455 28.3676 33.9549 28.306 33.7794L28.2809 33.7049C27.7785 32.2612 27.0258 30.9229 26.0591 29.755L26.0089 29.6948C25.8915 29.553 25.7351 29.451 25.5602 29.4024C25.3853 29.3537 25.2002 29.3607 25.0292 29.4223L22.7628 30.2513C21.9254 29.5456 20.9932 28.9892 19.9828 28.6019L19.5446 26.1666C19.5115 25.9832 19.4249 25.8144 19.2963 25.6827C19.1677 25.5511 19.0031 25.4627 18.8245 25.4295L18.7491 25.4151C17.2977 25.1455 15.7681 25.1455 14.3167 25.4151L14.2414 25.4295C14.0627 25.4627 13.8982 25.5511 13.7695 25.6827C13.6409 25.8144 13.5543 25.9832 13.5213 26.1666L13.0803 28.6134C12.0794 29.0037 11.1471 29.5589 10.3198 30.257L8.03663 29.4223C7.86572 29.3602 7.68046 29.353 7.50546 29.4017C7.33047 29.4503 7.17403 29.5526 7.05694 29.6948L7.0067 29.755C6.04177 30.9242 5.28922 32.2621 4.78494 33.7049L4.75982 33.7794C4.63421 34.138 4.73749 34.5396 5.01939 34.7891L6.86714 36.4098C6.78061 36.9491 6.73874 37.4998 6.73874 38.0448C6.73874 38.5955 6.78061 39.1463 6.86714 39.6798L5.02497 41.3005C4.88708 41.4218 4.78839 41.5834 4.74202 41.7637C4.69565 41.9441 4.7038 42.1347 4.7654 42.3101L4.79052 42.3847C5.29572 43.8275 6.04096 45.1614 7.01228 46.3345L7.06252 46.3948C7.1799 46.5366 7.33634 46.6386 7.51123 46.6872C7.68612 46.7359 7.87125 46.7289 8.04222 46.6673L10.3254 45.8326C11.1571 46.5353 12.0838 47.0918 13.0858 47.4762L13.5268 49.9229C13.5599 50.1064 13.6465 50.2752 13.7751 50.4069C13.9037 50.5385 14.0683 50.6269 14.247 50.6601L14.3223 50.6745C15.788 50.9456 17.289 50.9456 18.7547 50.6745L18.83 50.6601C19.0087 50.6269 19.1732 50.5385 19.3019 50.4069C19.4305 50.2752 19.5171 50.1064 19.5502 49.9229L19.9884 47.4877C20.9988 47.0975 21.931 46.5439 22.7684 45.8383L25.0348 46.6673C25.2057 46.7294 25.391 46.7366 25.5659 46.6879C25.7409 46.6393 25.8974 46.537 26.0145 46.3948L26.0647 46.3345C27.036 45.1556 27.7813 43.8275 28.2865 42.3847L28.3116 42.3101C28.4316 41.9545 28.3283 41.5557 28.0464 41.3062ZM16.5385 42.8035C13.8283 42.8035 11.6316 40.5461 11.6316 37.7608C11.6316 34.9756 13.8283 32.7181 16.5385 32.7181C19.2487 32.7181 21.4453 34.9756 21.4453 37.7608C21.4453 40.5461 19.2487 42.8035 16.5385 42.8035Z" fill="#212121"/>
</g>
</svg>
