<svg width="50" height="55" viewBox="0 0 50 55" fill="none" xmlns="http://www.w3.org/2000/svg">
<mask id="mask0_561_208" style="mask-type:alpha" maskUnits="userSpaceOnUse" x="0" y="0" width="50" height="55">
<rect width="50" height="55" fill="#D9D9D9"/>
</mask>
<g mask="url(#mask0_561_208)">
<path d="M45 13.4309H42.5V50.0285H45C47.75 50.0285 50 47.8326 50 45.1488V18.3105C50 15.6267 47.75 13.4309 45 13.4309ZM0 18.3105V45.1488C0 47.8326 2.2475 50.0285 5 50.0285H7.5V13.4309H5C2.2475 13.4309 0 15.6267 0 18.3105ZM33.75 8.32182C32.0475 7.55083 29.0275 6.11133 24.9525 6.11133C20.87 6.11133 17.9525 7.55083 16.25 8.32182V13.4309H10V50.0285H40V13.4309H33.75V8.32182ZM30 13.4309H20V10.1712C21.335 9.61006 22.695 9.0367 24.9525 9.0367C27.2075 9.0367 28.6675 9.60762 30 10.1712V13.4309Z" fill="#212121"/>
<path d="M35.1671 30.6525V28.443H32.9072V26.2335C32.9054 25.648 32.6668 25.087 32.2433 24.6731C31.8199 24.2591 31.2461 24.0257 30.6473 24.024H28.3874V21.8145H26.1276V24.024H23.8677V21.8145H21.6078V24.024H19.3479C18.7491 24.0257 18.1753 24.2591 17.7519 24.6731C17.3285 25.087 17.0898 25.648 17.088 26.2335V28.443H14.8281V30.6525H17.088V32.862H14.8281V35.0715H17.088V37.2811C17.0898 37.8665 17.3285 38.4275 17.7519 38.8415C18.1753 39.2555 18.7491 39.4888 19.3479 39.4906H21.6078V41.7001H23.8677V39.4906H26.1276V41.7001H28.3874V39.4906H30.6473C31.2461 39.4888 31.8199 39.2555 32.2433 38.8415C32.6668 38.4275 32.9054 37.8665 32.9072 37.2811V35.0715H35.1671V32.862H32.9072V30.6525H35.1671ZM30.6473 37.2811H19.3479V26.2335H30.6473V37.2811Z" fill="white"/>
<path d="M24.2751 27.3398H22.7554L20.4844 36.1779H21.6447L22.169 34.1065H24.7858L25.2965 36.1779H26.4964L24.2751 27.3398ZM22.3215 33.2216L23.4717 28.3894H23.5237L24.6344 33.2216H22.3215ZM27.5325 27.3398H28.6623V36.1779H27.5325V27.3398Z" fill="white"/>
</g>
</svg>
