<svg width="50" height="55" viewBox="0 0 50 55" fill="none" xmlns="http://www.w3.org/2000/svg">
<mask id="mask0_561_203" style="mask-type:alpha" maskUnits="userSpaceOnUse" x="0" y="0" width="50" height="55">
<rect width="50" height="55" fill="#D9D9D9"/>
</mask>
<g mask="url(#mask0_561_203)">
<path d="M27.0726 2.44336V16.8653C27.0723 17.4968 27.1992 18.1222 27.446 18.7058C27.6929 19.2893 28.0548 19.8195 28.5112 20.2662C28.9676 20.7128 29.5095 21.0672 30.1059 21.3089C30.7023 21.5506 31.3416 21.6751 31.9872 21.6751H46.7308V45.7141C46.7308 46.9891 46.213 48.2118 45.2913 49.1134C44.3697 50.0149 43.1197 50.5214 41.8162 50.5214H19.7009V41.6976C21.2166 39.8658 22.0792 37.5999 22.1576 35.2445C22.236 32.8891 21.5259 30.5731 20.1352 28.6487C18.7445 26.7244 16.7494 25.2969 14.4532 24.5835C12.157 23.8701 9.68553 23.9098 7.41453 24.6965V7.25068C7.41453 5.9757 7.93231 4.75294 8.85396 3.85139C9.77562 2.94984 11.0256 2.44336 12.3291 2.44336H27.0726ZM30.7585 3.64519V16.8653C30.7585 17.1841 30.888 17.4898 31.1184 17.7152C31.3488 17.9405 31.6613 18.0672 31.9872 18.0672H45.5021L30.7585 3.64519ZM19.7009 34.8976C19.7009 36.0024 19.4784 37.0964 19.0462 38.1171C18.614 39.1378 17.9805 40.0652 17.1818 40.8464C16.3832 41.6276 15.4351 42.2473 14.3917 42.67C13.3482 43.0928 12.2299 43.3104 11.1004 43.3104C9.971 43.3104 8.85264 43.0928 7.80919 42.67C6.76573 42.2473 5.81763 41.6276 5.01901 40.8464C4.22038 40.0652 3.58688 39.1378 3.15467 38.1171C2.72246 37.0964 2.5 36.0024 2.5 34.8976C2.5 32.6664 3.40611 30.5266 5.01901 28.9489C6.6319 27.3711 8.81945 26.4848 11.1004 26.4848C13.3814 26.4848 15.569 27.3711 17.1818 28.9489C18.7947 30.5266 19.7009 32.6664 19.7009 34.8976ZM4.95726 43.8921V51.2089C4.95682 51.5466 5.05882 51.8768 5.25034 52.1578C5.44186 52.4388 5.7143 52.6578 6.03317 52.7873C6.35203 52.9167 6.70299 52.9507 7.04162 52.885C7.38025 52.8192 7.69133 52.6567 7.93547 52.4179L11.1004 49.322L14.2654 52.4179C14.5095 52.6567 14.8206 52.8192 15.1592 52.885C15.4979 52.9507 15.8488 52.9167 16.1677 52.7873C16.4866 52.6578 16.759 52.4388 16.9505 52.1578C17.142 51.8768 17.244 51.5466 17.2436 51.2089V43.8921C15.4264 45.0831 13.2877 45.7174 11.1004 45.7141C8.91305 45.7178 6.77421 45.0835 4.95726 43.8921Z" fill="#212121"/>
<path d="M21.5234 29.0078H37.8877H21.5234Z" fill="#212121"/>
<path d="M22.8503 37.5628H35.6763M21.5234 29.0078H37.8877" stroke="white" stroke-width="3.91302" stroke-linecap="round" stroke-linejoin="round"/>
</g>
</svg>
