<svg width="50" height="55" viewBox="0 0 50 55" fill="none" xmlns="http://www.w3.org/2000/svg">
<mask id="mask0_561_354" style="mask-type:alpha" maskUnits="userSpaceOnUse" x="0" y="0" width="50" height="55">
<rect width="50" height="55" fill="#D9D9D9"/>
</mask>
<g mask="url(#mask0_561_354)">
<path d="M34.121 17.2833C33.9259 17.2826 33.7329 17.2439 33.5531 17.1696C33.3734 17.0954 33.2105 16.987 33.0739 16.8507L22.1155 6.13588C21.8398 5.8605 21.6872 5.48929 21.6913 5.1039C21.6955 4.71852 21.856 4.35053 22.1376 4.08088C22.4193 3.81124 22.7989 3.66204 23.1931 3.6661C23.5872 3.67015 23.9636 3.82714 24.2393 4.10252L35.2124 14.8173C35.4871 15.0875 35.6413 15.453 35.6413 15.834C35.6413 16.215 35.4871 16.5805 35.2124 16.8507C35.0707 16.9923 34.9006 17.1037 34.7128 17.1782C34.525 17.2526 34.3236 17.2884 34.121 17.2833ZM14.9329 36.0307C14.5459 36.0291 14.1752 35.8789 13.9004 35.6125L2.92735 24.8977C2.64963 24.6204 2.49593 24.2466 2.50008 23.8585C2.50423 23.4704 2.66588 23.0998 2.94947 22.8282C3.23307 22.5567 3.61537 22.4064 4.01228 22.4105C4.40919 22.4145 4.7882 22.5726 5.06593 22.8499L16.0243 33.5647C16.2323 33.7664 16.3741 34.0241 16.4318 34.305C16.4894 34.5858 16.4602 34.8771 16.3478 35.1416C16.2355 35.4062 16.0451 35.632 15.801 35.7903C15.5569 35.9487 15.2701 36.0324 14.9771 36.0307H14.9329ZM29.6079 46.4283L30.3453 48.9808C30.3971 49.1698 30.4039 49.3678 30.3654 49.5598C30.3268 49.7518 30.2439 49.9326 30.1229 50.0885C30.002 50.2443 29.8462 50.3711 29.6674 50.459C29.4887 50.547 29.2918 50.5938 29.0917 50.5959H4.57922C4.37914 50.5938 4.18221 50.547 4.00348 50.459C3.82475 50.3711 3.66895 50.2443 3.54798 50.0885C3.42702 49.9326 3.3441 49.7518 3.30555 49.5598C3.267 49.3678 3.27385 49.1698 3.32557 48.9808L4.07776 46.4283C4.21601 45.973 4.50269 45.5744 4.89409 45.2933C5.2855 45.0121 5.76019 44.8637 6.24583 44.8708H27.4251C27.9121 44.8653 28.3879 45.014 28.7813 45.2947C29.1747 45.5755 29.4647 45.9731 29.6079 46.4283ZM46.6428 42.2173L26.3484 22.5759L30.7731 18.2496L20.5816 8.21251L7.39623 21.1049L17.6171 31.1131L22.3515 26.4984L42.6163 46.111C42.8785 46.3699 43.1911 46.5747 43.5356 46.7134C43.8801 46.8521 44.2496 46.9219 44.6222 46.9186C45.1816 46.924 45.73 46.7664 46.1975 46.466C46.665 46.1655 47.0304 45.7357 47.2471 45.2314C47.4639 44.7271 47.5221 44.1712 47.4145 43.6344C47.3069 43.0976 47.0382 42.6043 46.6428 42.2173Z" fill="#212121"/>
</g>
</svg>
