<svg width="50" height="55" viewBox="0 0 50 55" fill="none" xmlns="http://www.w3.org/2000/svg">
<mask id="mask0_561_357" style="mask-type:alpha" maskUnits="userSpaceOnUse" x="0" y="0" width="50" height="55">
<rect width="50" height="55" fill="#D9D9D9"/>
</mask>
<g mask="url(#mask0_561_357)">
<path d="M43.3199 9.77734H7.03555C4.53419 9.77734 2.5 11.7517 2.5 14.1795V40.5924C2.5 43.0202 4.53419 44.9945 7.03555 44.9945H43.3199C45.8213 44.9945 47.8555 43.0202 47.8555 40.5924V14.1795C47.8555 11.7517 45.8213 9.77734 43.3199 9.77734ZM17.7281 18.5816C20.3383 18.5816 22.2636 20.4504 22.2636 22.9838C22.2636 25.5172 20.3383 27.3859 17.7281 27.3859C15.1179 27.3859 13.1926 25.5172 13.1926 22.9838C13.1926 20.4504 15.1156 18.5816 17.7281 18.5816ZM26.1529 36.1902H9.30332V35.1667C9.30332 32.1447 13.1041 29.0367 17.7281 29.0367C22.3521 29.0367 26.1529 32.1447 26.1529 35.1667V36.1902ZM41.0521 33.9892H31.9811V29.587H41.0521V33.9892ZM41.0521 25.1849H29.7133V20.7827H41.0521V25.1849Z" fill="#212121"/>
</g>
</svg>
