<svg width="56" height="50" viewBox="0 0 56 50" fill="none" xmlns="http://www.w3.org/2000/svg">
<path fill-rule="evenodd" clip-rule="evenodd" d="M39.9845 16.7777C42.4644 17.3133 44.3361 19.5389 44.3361 22.2001V28.7574L55.3459 23.2074V42.6325L44.3361 37.0825V44.4002C44.3361 47.461 41.8671 49.9502 38.8312 49.9502H5.80177C2.76582 49.9502 0.296875 47.461 0.296875 44.4002V22.2001C0.299062 21.3323 0.503758 20.4772 0.894412 19.704C1.28507 18.9307 1.85071 18.261 2.54563 17.749C1.15564 15.8897 0.296875 13.6031 0.296875 11.1C0.296875 4.97837 5.23477 0 11.3067 0C15.4794 0 19.0741 2.37818 20.9402 5.83862C22.8064 2.37818 26.4011 0 30.5738 0C36.6457 0 41.5836 4.97837 41.5836 11.1C41.5836 13.1813 40.9753 15.1099 39.9845 16.7777ZM36.0787 11.1C36.0787 8.03921 33.6098 5.55002 30.5738 5.55002C27.5379 5.55002 25.0689 8.03921 25.0689 11.1C25.0689 14.1609 27.5379 16.6501 30.5738 16.6501C33.6098 16.6501 36.0787 14.1609 36.0787 11.1ZM16.8116 11.1C16.8116 8.03921 14.3426 5.55002 11.3067 5.55002C8.27072 5.55002 5.80177 8.03921 5.80177 11.1C5.80177 14.1609 8.27072 16.6501 11.3067 16.6501C14.3426 16.6501 16.8116 14.1609 16.8116 11.1ZM12.5195 25.7852C11.9672 25.7852 11.5195 26.2329 11.5195 26.7852V39.3306C11.5195 39.8829 11.9672 40.3306 12.5195 40.3306H30.5195C31.0718 40.3306 31.5195 39.8829 31.5195 39.3306V26.7852C31.5195 26.2329 31.0718 25.7852 30.5195 25.7852H12.5195Z" fill="#212121"/>
</svg>
