<svg width="50" height="51" viewBox="0 0 50 51" fill="none" xmlns="http://www.w3.org/2000/svg">
<mask id="mask0_193_2412" style="mask-type:alpha" maskUnits="userSpaceOnUse" x="0" y="0" width="50" height="51">
<rect y="0.34375" width="50" height="50" fill="#D9D9D9"/>
</mask>
<g mask="url(#mask0_193_2412)">
<path d="M48.6586 24.725C46.4491 14.6472 43.1239 9.26822 38.1913 7.79895C37.1545 7.49211 36.079 7.33882 34.9984 7.34387C33.5702 7.34387 32.3264 7.6949 31.0107 8.06695C29.4252 8.51572 27.624 9.02544 24.9979 9.02544C22.3717 9.02544 20.5695 8.51677 18.9808 8.068C17.6641 7.6949 16.4213 7.34387 14.9973 7.34387C13.8799 7.33996 12.7675 7.49277 11.6919 7.7979C6.78535 9.26087 3.46224 14.6377 1.22044 24.7187C-1.19011 35.567 -0.00358403 42.4162 4.54772 44.0053C5.17159 44.2272 5.82801 44.3416 6.4895 44.3438C9.60739 44.3438 12.1075 41.7236 13.816 39.5786C15.7463 37.1508 18.0058 35.9191 24.9979 35.9191C31.243 35.9191 33.8275 36.7735 36.06 39.5786C37.4632 41.3421 38.7893 42.576 40.1123 43.3527C41.8717 44.3847 43.6302 44.6139 45.3376 44.0221C48.0273 43.0962 49.5691 40.6485 49.9212 36.7451C50.1889 33.7519 49.7764 29.8202 48.6586 24.725ZM19.9976 24.1596H16.664V27.5228C16.664 27.9687 16.4884 28.3965 16.1759 28.7118C15.8633 29.0272 15.4393 29.2043 14.9973 29.2043C14.5552 29.2043 14.1313 29.0272 13.8187 28.7118C13.5061 28.3965 13.3305 27.9687 13.3305 27.5228V24.1596H9.99699C9.55494 24.1596 9.13099 23.9824 8.81841 23.6671C8.50583 23.3517 8.33023 22.924 8.33023 22.478C8.33023 22.0321 8.50583 21.6043 8.81841 21.289C9.13099 20.9736 9.55494 20.7965 9.99699 20.7965H13.3305V17.4333C13.3305 16.9873 13.5061 16.5596 13.8187 16.2443C14.1313 15.9289 14.5552 15.7517 14.9973 15.7517C15.4393 15.7517 15.8633 15.9289 16.1759 16.2443C16.4884 16.5596 16.664 16.9873 16.664 17.4333V20.7965H19.9976C20.4396 20.7965 20.8636 20.9736 21.1761 21.289C21.4887 21.6043 21.6643 22.0321 21.6643 22.478C21.6643 22.924 21.4887 23.3517 21.1761 23.6671C20.8636 23.9824 20.4396 24.1596 19.9976 24.1596ZM28.7481 24.58C28.336 24.58 27.9332 24.4567 27.5906 24.2258C27.2479 23.9948 26.9809 23.6665 26.8232 23.2824C26.6655 22.8983 26.6243 22.4757 26.7047 22.068C26.785 21.6602 26.9835 21.2857 27.2748 20.9917C27.5662 20.6978 27.9375 20.4976 28.3416 20.4165C28.7458 20.3354 29.1647 20.377 29.5454 20.5361C29.9261 20.6952 30.2515 20.9646 30.4804 21.3102C30.7093 21.6559 30.8315 22.0623 30.8315 22.478C30.8315 23.0355 30.612 23.5702 30.2213 23.9643C29.8306 24.3585 29.3006 24.58 28.7481 24.58ZM33.3317 29.2043C32.9194 29.2043 32.5164 29.0809 32.1736 28.8497C31.8309 28.6185 31.5639 28.2899 31.4063 27.9055C31.2488 27.5211 31.2078 27.0982 31.2886 26.6904C31.3695 26.2825 31.5684 25.9079 31.8603 25.6142C32.1522 25.3204 32.5239 25.1207 32.9284 25.0401C33.3329 24.9596 33.752 25.002 34.1326 25.1619C34.5132 25.3218 34.8382 25.592 35.0665 25.9384C35.2948 26.2848 35.4162 26.6917 35.4151 27.1076C35.4137 27.6642 35.1936 28.1975 34.8031 28.5905C34.4125 28.9836 33.8833 29.2043 33.3317 29.2043ZM33.3317 19.9557C32.9196 19.9557 32.5168 19.8324 32.1742 19.6014C31.8315 19.3705 31.5645 19.0422 31.4068 18.6581C31.2491 18.274 31.2079 17.8514 31.2882 17.4436C31.3686 17.0359 31.5671 16.6614 31.8584 16.3674C32.1498 16.0734 32.5211 15.8732 32.9252 15.7921C33.3294 15.711 33.7483 15.7527 34.129 15.9117C34.5097 16.0708 34.8351 16.3403 35.064 16.6859C35.2929 17.0316 35.4151 17.438 35.4151 17.8537C35.4151 18.4112 35.1956 18.9458 34.8049 19.34C34.4142 19.7342 33.8842 19.9557 33.3317 19.9557ZM37.9153 24.58C37.5032 24.58 37.1004 24.4567 36.7578 24.2258C36.4151 23.9948 36.1481 23.6665 35.9904 23.2824C35.8327 22.8983 35.7915 22.4757 35.8718 22.068C35.9522 21.6602 36.1507 21.2857 36.442 20.9917C36.7334 20.6978 37.1047 20.4976 37.5088 20.4165C37.913 20.3354 38.3319 20.377 38.7126 20.5361C39.0933 20.6952 39.4187 20.9646 39.6476 21.3102C39.8765 21.6559 39.9987 22.0623 39.9987 22.478C39.9987 23.0355 39.7792 23.5702 39.3885 23.9643C38.9978 24.3585 38.4678 24.58 37.9153 24.58Z" fill="#212121"/>
</g>
</svg>
