<svg width="56" height="56" viewBox="0 0 56 56" fill="none" xmlns="http://www.w3.org/2000/svg">
<mask id="mask0_193_2247" style="mask-type:alpha" maskUnits="userSpaceOnUse" x="0" y="0" width="56" height="56">
<rect x="0.785156" y="0.894531" width="55" height="55" fill="#D9D9D9"/>
</mask>
<g mask="url(#mask0_193_2247)">
<path d="M16.7785 24.0464H15.0485C12.6877 23.9611 10.3345 24.3619 8.13497 25.2239C5.93547 26.0859 3.9366 27.3907 2.2624 29.0574L1.78516 29.6142V46.0791H9.89826V36.7331L10.9919 35.5002L11.4891 34.9235C14.078 32.2639 17.301 30.3068 20.8549 29.2364C19.0756 27.8825 17.6723 26.0958 16.7785 24.0464Z" fill="#212121"/>
<path d="M55.2353 28.9988C53.5611 27.3321 51.5622 26.0273 49.3627 25.1653C47.1632 24.3033 44.81 23.9025 42.4492 23.9878C41.7251 23.9899 41.0016 24.0297 40.2817 24.1071C39.3711 26.0298 38.0062 27.7019 36.3047 28.979C40.0987 30.0286 43.5357 32.0908 46.2472 34.9445L46.7443 35.5013L47.8181 36.7341V46.1H55.6529V29.5556L55.2353 28.9988Z" fill="#212121"/>
<path d="M14.9887 20.1689H15.6051C15.3187 17.7096 15.7502 15.2199 16.8476 13.0005C17.9449 10.781 19.6613 8.92664 21.7893 7.66116C21.0179 6.48267 19.9537 5.52472 18.7008 4.88112C17.4479 4.23752 16.0494 3.93033 14.6421 3.98964C13.2349 4.04894 11.8671 4.4727 10.6728 5.21943C9.47855 5.96615 8.49867 7.01025 7.82914 8.24946C7.15961 9.48867 6.8234 10.8805 6.85341 12.2887C6.88342 13.6969 7.27864 15.0732 8.00036 16.2827C8.72208 17.4923 9.74555 18.4937 10.9706 19.1888C12.1956 19.884 13.5801 20.2491 14.9887 20.2484V20.1689Z" fill="#212121"/>
<path d="M41.4954 18.6775C41.5195 19.1345 41.5195 19.5925 41.4954 20.0496C41.877 20.1101 42.2624 20.1433 42.6487 20.149H43.0265C44.4288 20.0742 45.7879 19.6376 46.9714 18.8817C48.1549 18.1257 49.1225 17.0762 49.78 15.8353C50.4375 14.5945 50.7625 13.2045 50.7233 11.8007C50.6841 10.3969 50.2821 9.02722 49.5565 7.82492C48.8308 6.62262 47.8062 5.62871 46.5824 4.93994C45.3586 4.25117 43.9773 3.89102 42.573 3.89456C41.1687 3.89809 39.7892 4.26518 38.5689 4.9601C37.3486 5.65502 36.329 6.65407 35.6094 7.86001C37.4091 9.03509 38.8891 10.6386 39.9164 12.5266C40.9437 14.4146 41.4862 16.5281 41.4954 18.6775Z" fill="#212121"/>
<path d="M28.455 27.5858C33.3641 27.5858 37.3437 23.6063 37.3437 18.6972C37.3437 13.7882 33.3641 9.80859 28.455 9.80859C23.546 9.80859 19.5664 13.7882 19.5664 18.6972C19.5664 23.6063 23.546 27.5858 28.455 27.5858Z" fill="#212121"/>
<path d="M28.9323 32.3186C26.3354 32.2138 23.7441 32.6354 21.3144 33.558C18.8847 34.4807 16.6667 35.8854 14.794 37.6876L14.2969 38.2444V50.8316C14.3046 51.2416 14.3931 51.6461 14.5572 52.0219C14.7213 52.3977 14.9578 52.7375 15.2533 53.0219C15.5487 53.3062 15.8973 53.5296 16.2791 53.6792C16.6609 53.8289 17.0685 53.9018 17.4785 53.8939H40.3264C40.7364 53.9018 41.144 53.8289 41.5258 53.6792C41.9076 53.5296 42.2562 53.3062 42.5516 53.0219C42.8471 52.7375 43.0836 52.3977 43.2477 52.0219C43.4118 51.6461 43.5003 51.2416 43.508 50.8316V38.2841L43.0308 37.6876C41.1702 35.8799 38.96 34.4712 36.5357 33.548C34.1114 32.6248 31.524 32.2064 28.9323 32.3186Z" fill="#212121"/>
</g>
</svg>
