<svg width="50" height="55" viewBox="0 0 50 55" fill="none" xmlns="http://www.w3.org/2000/svg">
<mask id="mask0_561_348" style="mask-type:alpha" maskUnits="userSpaceOnUse" x="0" y="0" width="50" height="55">
<rect width="50" height="55" fill="#D9D9D9"/>
</mask>
<g mask="url(#mask0_561_348)">
<path d="M23.2509 6.11133V11.9026H26.2153V6.11133H23.2509ZM12.4426 16.6688L7.99602 12.3253L5.89721 14.3754L10.3438 18.7189L12.4426 16.6688ZM39.1223 18.7189L43.5689 14.3754L41.4701 12.3253L37.0235 16.6688L39.1223 18.7189ZM24.7331 14.7982C21.9072 14.7977 19.1761 15.7932 17.0413 17.6018C14.9066 19.4104 13.5116 21.9107 13.1126 24.6433L13.0829 24.846C12.8576 26.3683 12.9488 27.9194 13.3512 29.4065C13.7536 30.8936 14.4589 32.2862 15.4248 33.501C16.5602 34.9343 17.322 36.304 17.322 37.6765V42.3066C17.322 42.6906 17.4782 43.0588 17.7562 43.3303C18.0341 43.6019 18.4111 43.7544 18.8043 43.7544H30.6619C31.055 43.7544 31.432 43.6019 31.71 43.3303C31.9879 43.0588 32.1441 42.6906 32.1441 42.3066V37.6765C32.1441 36.304 32.9059 34.9343 34.0413 33.501C35.9089 31.144 36.8516 28.0717 36.3832 24.8431L36.3536 24.6404C35.9539 21.9083 34.5586 19.4088 32.4239 17.6007C30.2893 15.7927 27.5585 14.7976 24.7331 14.7982ZM2.5 29.2763H8.42882V26.3807H2.5V29.2763ZM41.0373 29.2763H46.9661V26.3807H41.0373V29.2763ZM20.2865 49.5456H29.1797V46.65H20.2865V49.5456Z" fill="#212121"/>
</g>
</svg>
