<svg width="45" height="46" viewBox="0 0 45 46" fill="none" xmlns="http://www.w3.org/2000/svg">
<circle cx="22.5" cy="22.6953" r="22" stroke="white"/>
<path d="M28.41 13.8906H17.5676C15.4293 13.8906 13.6953 15.5334 13.6953 17.5591V27.8308C13.6953 29.8566 15.4293 31.4993 17.5676 31.4993H28.41C30.549 31.4993 32.2823 29.8566 32.2823 27.8308V17.5591C32.2823 15.5334 30.549 13.8906 28.41 13.8906ZM19.891 27.8308H17.5676V19.7602H19.891V27.8308ZM18.7293 18.8299C17.9812 18.8299 17.374 18.2502 17.374 17.5356C17.374 16.821 17.9812 16.2414 18.7293 16.2414C19.4774 16.2414 20.0846 16.821 20.0846 17.5356C20.0846 18.2502 19.4782 18.8299 18.7293 18.8299ZM29.1844 27.8308H26.8611V23.7192C26.8611 21.2481 23.7632 21.4352 23.7632 23.7192V27.8308H21.4399V19.7602H23.7632V21.0552C24.8444 19.1578 29.1844 19.0177 29.1844 22.8718V27.8308Z" fill="white"/>
</svg>
