<svg width="35" height="50" viewBox="0 0 35 50" fill="none" xmlns="http://www.w3.org/2000/svg">
<path d="M32.9748 18.7313H31.4045C30.537 18.7313 29.8343 19.4298 29.8343 20.2923V24.9751C29.8343 32.2725 23.5053 38.128 16.0173 37.4022C9.49104 36.769 4.71068 30.9369 4.71068 24.419V20.2923C4.71068 19.4298 4.008 18.7313 3.14045 18.7313H1.57023C0.702677 18.7313 0 19.4298 0 20.2923V24.2102C0 32.9554 6.27796 40.7514 14.9172 41.9357V45.2674H9.42136C8.55381 45.2674 7.85114 45.9659 7.85114 46.8283V48.3893C7.85114 49.2517 8.55381 49.9502 9.42136 49.9502H25.1236C25.9912 49.9502 26.6939 49.2517 26.6939 48.3893V46.8283C26.6939 45.9659 25.9912 45.2674 25.1236 45.2674H19.6278V41.9728C28.0393 40.8255 34.545 33.6481 34.545 24.9751V20.2923C34.545 19.4298 33.8423 18.7313 32.9748 18.7313ZM17.2725 34.3408C22.4758 34.3408 26.6939 30.1477 26.6939 24.9751H18.3196C17.7416 24.9751 17.2725 24.6258 17.2725 24.1946V22.6337C17.2725 22.2025 17.7416 21.8532 18.3196 21.8532H26.6939V18.7313H18.3196C17.7416 18.7313 17.2725 18.3821 17.2725 17.9509V16.3899C17.2725 15.9587 17.7416 15.6094 18.3196 15.6094H26.6939V12.4875H18.3196C17.7416 12.4875 17.2725 12.1383 17.2725 11.7071V10.1461C17.2725 9.71492 17.7416 9.36566 18.3196 9.36566H26.6939C26.6939 4.19308 22.4758 0 17.2725 0C12.0692 0 7.85114 4.19308 7.85114 9.36566V24.9751C7.85114 30.1477 12.0692 34.3408 17.2725 34.3408Z" fill="#212121"/>
</svg>
