<svg width="24" height="24" viewBox="0 0 24 24" fill="none" xmlns="http://www.w3.org/2000/svg">
<rect width="24" height="24" fill="white"/>
<path d="M18.3632 18.3634C17.9727 18.7539 17.3395 18.7539 16.949 18.3634L5.63528 7.04965C5.24476 6.65912 5.24476 6.02596 5.63528 5.63543V5.63543C6.02581 5.24491 6.65897 5.24491 7.0495 5.63543L18.3632 16.9491C18.7537 17.3397 18.7537 17.9728 18.3632 18.3634V18.3634Z" fill="#212121"/>
<path d="M5.63679 18.3634C6.02732 18.7539 6.66048 18.7539 7.05101 18.3634L18.3647 7.04965C18.7552 6.65912 18.7552 6.02596 18.3647 5.63543V5.63543C17.9742 5.24491 17.341 5.24491 16.9505 5.63543L5.63679 16.9491C5.24627 17.3397 5.24627 17.9728 5.63679 18.3634V18.3634Z" fill="#212121"/>
</svg>
