<svg width="56" height="51" viewBox="0 0 56 51" fill="none" xmlns="http://www.w3.org/2000/svg">
<path d="M29.1958 6.44455H53.0221C53.7581 6.44455 54.4639 6.73692 54.9843 7.25734C55.5047 7.77775 55.7971 8.48358 55.7971 9.21956V48.0697C55.7971 48.8057 55.5047 49.5115 54.9843 50.0319C54.4639 50.5524 53.7581 50.8447 53.0221 50.8447H3.07189C2.33591 50.8447 1.63007 50.5524 1.10966 50.0319C0.589241 49.5115 0.296875 48.8057 0.296875 48.0697V3.66954C0.296875 2.93356 0.589241 2.22773 1.10966 1.70731C1.63007 1.1869 2.33591 0.894531 3.07189 0.894531H23.6458L29.1958 6.44455ZM25.272 28.7834C23.8693 28.4971 22.4124 28.6517 21.1011 29.2261C19.7898 29.8004 18.6882 30.7664 17.9476 31.9915C17.2069 33.2166 16.8634 34.6409 16.9641 36.0689C17.0649 37.497 17.6049 38.8589 18.5102 39.9679C19.4155 41.0769 20.6418 41.8787 22.0207 42.2632C23.3997 42.6478 24.8639 42.5964 26.2125 42.116C27.5611 41.6356 28.728 40.7498 29.5533 39.58C30.3785 38.4102 30.8217 37.0138 30.822 35.5822V23.0946H39.147V17.5446H25.272V28.7834Z" fill="#212121"/>
</svg>
