<svg width="64" height="56" viewBox="0 0 64 56" fill="none" xmlns="http://www.w3.org/2000/svg">
<mask id="mask0_544_781" style="mask-type:alpha" maskUnits="userSpaceOnUse" x="0" y="0" width="64" height="56">
<rect width="63.84" height="56" fill="#D9D9D9"/>
</mask>
<g mask="url(#mask0_544_781)">
<path d="M54.1783 13.814V6.7207H2.23828V45.734C2.23828 46.6747 2.62916 47.5768 3.32492 48.2419C4.02068 48.907 4.96433 49.2807 5.94828 49.2807H56.0333C57.5092 49.2807 58.9247 48.7202 59.9683 47.7225C61.012 46.7248 61.5983 45.3717 61.5983 43.9607V13.814H54.1783ZM50.4683 45.734H5.94828V10.2674H50.4683V45.734ZM9.65828 17.3607H46.7583V20.9074H9.65828V17.3607ZM31.9183 24.454H46.7583V28.0007H31.9183V24.454ZM31.9183 31.5474H46.7583V35.094H31.9183V31.5474ZM31.9183 38.6407H43.0483V42.1874H31.9183V38.6407ZM9.65828 24.454H28.2083V42.1874H9.65828V24.454Z" fill="#212121"/>
</g>
</svg>
