<svg width="55" height="50" viewBox="0 0 55 50" fill="none" xmlns="http://www.w3.org/2000/svg">
<path d="M45.2267 12.4522C42.4552 5.17488 35.3935 0 27.1215 0C18.8495 0 11.7877 5.16886 9.01629 12.4462C3.83041 13.8017 0 18.5006 0 24.0972C0 30.7541 5.41582 36.1458 12.0964 36.1458H42.1224C48.8029 36.1458 54.2188 30.7541 54.2188 24.0972C54.2188 18.5127 50.4005 13.8137 45.2267 12.4522Z" fill="#212121"/>
<line x1="16.2422" y1="32.7012" x2="16.2422" y2="47.9995" stroke="#212121" stroke-width="4" stroke-linecap="round"/>
<line x1="15.4102" y1="48" x2="7.08771" y2="48" stroke="#212121" stroke-width="4" stroke-linecap="round"/>
<line x1="37.8789" y1="34.1855" x2="37.8789" y2="47.9993" stroke="#212121" stroke-width="4" stroke-linecap="round"/>
<line x1="2" y1="-2" x2="10.3224" y2="-2" transform="matrix(1 -7.89886e-08 -9.67576e-08 -1 35.875 46)" stroke="#212121" stroke-width="4" stroke-linecap="round"/>
<line x1="27.3555" y1="32.7012" x2="27.3555" y2="47.9995" stroke="#212121" stroke-width="4" stroke-linecap="round"/>
<path d="M36.171 19.2192L24.2341 13.2567C24.073 13.1822 23.8959 13.1491 23.7188 13.1604C23.5417 13.1717 23.3702 13.2271 23.22 13.3215C23.0698 13.4159 22.9456 13.5464 22.8587 13.701C22.7719 13.8556 22.7251 14.0295 22.7227 14.2068V26.1266C22.7212 26.3086 22.7667 26.4879 22.8548 26.6471C22.943 26.8064 23.0707 26.9403 23.2258 27.0358C23.3809 27.1313 23.558 27.1853 23.74 27.1924C23.922 27.1996 24.1028 27.1597 24.2649 27.0767L36.171 21.1142C36.3473 21.0258 36.4956 20.8901 36.5992 20.7223C36.7028 20.5545 36.7577 20.3613 36.7577 20.1641C36.7577 19.967 36.7028 19.7737 36.5992 19.6059C36.4956 19.4382 36.3473 19.3025 36.171 19.214V19.2192Z" fill="white"/>
</svg>
