<svg width="51" height="51" viewBox="0 0 51 51" fill="none" xmlns="http://www.w3.org/2000/svg">
<mask id="mask0_193_2435" style="mask-type:alpha" maskUnits="userSpaceOnUse" x="0" y="0" width="51" height="51">
<rect x="0.0859375" y="0.34375" width="50" height="50" fill="#D9D9D9"/>
</mask>
<g mask="url(#mask0_193_2435)">
<path d="M12.009 10.1322V12.613H10.3552C8.16203 12.613 6.05872 13.4842 4.50794 15.035C2.95716 16.5858 2.08594 18.6891 2.08594 20.8822V33.2861C2.08594 34.8213 2.69579 36.2936 3.78134 37.3791C4.86689 38.4647 6.3392 39.0745 7.8744 39.0745H10.3552V41.5553C10.3552 43.0905 10.965 44.5628 12.0506 45.6483C13.1361 46.7339 14.6084 47.3438 16.1436 47.3438H34.3359C35.8711 47.3438 37.3434 46.7339 38.429 45.6483C39.5145 44.5628 40.1244 43.0905 40.1244 41.5553V39.0745H42.6052C44.1404 39.0745 45.6127 38.4647 46.6982 37.3791C47.7838 36.2936 48.3936 34.8213 48.3936 33.2861V20.8822C48.3936 18.6891 47.5224 16.5858 45.9716 15.035C44.4208 13.4842 42.3175 12.613 40.1244 12.613H38.4706V10.1322C38.4706 8.59702 37.8607 7.1247 36.7752 6.03915C35.6896 4.9536 34.2173 4.34375 32.6821 4.34375H17.7975C16.2623 4.34375 14.79 4.9536 13.7044 6.03915C12.6189 7.1247 12.009 8.59702 12.009 10.1322ZM17.7975 7.65144H32.6821C33.34 7.65144 33.971 7.91281 34.4363 8.37804C34.9015 8.84328 35.1629 9.47427 35.1629 10.1322V12.613H15.3167V10.1322C15.3167 9.47427 15.5781 8.84328 16.0433 8.37804C16.5085 7.91281 17.1395 7.65144 17.7975 7.65144ZM13.6629 31.6322C13.6629 30.9743 13.9242 30.3433 14.3895 29.878C14.8547 29.4128 15.4857 29.1514 16.1436 29.1514H34.3359C34.9939 29.1514 35.6249 29.4128 36.0901 29.878C36.5553 30.3433 36.8167 30.9743 36.8167 31.6322V41.5553C36.8167 42.2132 36.5553 42.8442 36.0901 43.3095C35.6249 43.7747 34.9939 44.0361 34.3359 44.0361H16.1436C15.4857 44.0361 14.8547 43.7747 14.3895 43.3095C13.9242 42.8442 13.6629 42.2132 13.6629 41.5553V31.6322Z" fill="#212121"/>
<line x1="16.6992" y1="32.8258" x2="34.0769" y2="32.8258" stroke="#212121" stroke-width="0.7"/>
<line x1="16.6992" y1="10.3141" x2="34.0769" y2="10.3141" stroke="#212121" stroke-width="0.7"/>
<line x1="16.6992" y1="36.775" x2="34.0769" y2="36.775" stroke="#212121" stroke-width="0.7"/>
<line x1="16.6992" y1="40.7242" x2="34.0769" y2="40.7242" stroke="#212121" stroke-width="0.7"/>
</g>
</svg>
