<svg width="156" height="116" viewBox="0 0 156 116" fill="none" xmlns="http://www.w3.org/2000/svg">
<path opacity="0.4" d="M50.0843 0.105469C46.0615 0.105469 42.4303 2.51597 40.8686 6.22321L0.84815 101.223C-1.92866 107.815 2.91122 115.105 10.0638 115.105H38.2284C42.7859 115.105 46.7669 112.024 47.9092 107.612L72.5051 12.6119C74.1443 6.28038 69.3645 0.105469 62.8243 0.105469H50.0843ZM132.341 0.105469C128.318 0.105469 124.687 2.51597 123.126 6.22321L83.1051 101.223C80.3283 107.815 85.1682 115.105 92.3208 115.105H120.485C125.043 115.105 129.024 112.024 130.166 107.612L154.762 12.6119C156.401 6.28038 151.621 0.105469 145.081 0.105469H132.341Z" fill="#6A6A6A" fill-opacity="0.5"/>
</svg>
