<svg width="50" height="50" viewBox="0 0 50 50" fill="none" xmlns="http://www.w3.org/2000/svg">
<mask id="mask0_193_2392" style="mask-type:alpha" maskUnits="userSpaceOnUse" x="0" y="0" width="50" height="50">
<rect width="50" height="50" fill="#D9D9D9"/>
</mask>
<g mask="url(#mask0_193_2392)">
<path d="M8.16667 46.75C7.02083 46.75 6.04028 46.3424 5.225 45.5271C4.40833 44.7104 4 43.7292 4 42.5833V14.7708L32.9583 3L34.3125 6.4375L17.125 13.4167H41.5C42.6458 13.4167 43.6271 13.825 44.4438 14.6417C45.259 15.4569 45.6667 16.4375 45.6667 17.5833V42.5833C45.6667 43.7292 45.259 44.7104 44.4438 45.5271C43.6271 46.3424 42.6458 46.75 41.5 46.75H8.16667ZM16.5 40.5C17.9583 40.5 19.191 39.9965 20.1979 38.9896C21.2049 37.9826 21.7083 36.75 21.7083 35.2917C21.7083 33.8333 21.2049 32.6007 20.1979 31.5938C19.191 30.5868 17.9583 30.0833 16.5 30.0833C15.0417 30.0833 13.809 30.5868 12.8021 31.5938C11.7951 32.6007 11.2917 33.8333 11.2917 35.2917C11.2917 36.75 11.7951 37.9826 12.8021 38.9896C13.809 39.9965 15.0417 40.5 16.5 40.5ZM8.16667 23.8333H33.1667V19.6667H37.3333V23.8333H41.5V17.5833H8.16667V23.8333Z" fill="black"/>
</g>
</svg>
