<svg width="52" height="61" viewBox="0 0 52 61" fill="none" xmlns="http://www.w3.org/2000/svg">
<path d="M3.01172 8.41993C3.01172 5.6585 5.25029 3.41992 8.01172 3.41992H43.706C46.4675 3.41992 48.706 5.6585 48.706 8.41992V52.8179C48.706 55.5793 46.4675 57.8179 43.706 57.8179H8.01172C5.25029 57.8179 3.01172 55.5793 3.01172 52.8179V8.41993ZM16.0672 16.4754H35.6505H16.0672Z" fill="#212121"/>
<path d="M16.0672 29.531H35.6505M16.0672 42.5865H26.9468M16.0672 16.4754H35.6505M8.01172 57.8179H43.706C46.4675 57.8179 48.706 55.5793 48.706 52.8179V8.41992C48.706 5.6585 46.4675 3.41992 43.706 3.41992H8.01172C5.25029 3.41992 3.01172 5.6585 3.01172 8.41993V52.8179C3.01172 55.5793 5.25029 57.8179 8.01172 57.8179Z" stroke="white" stroke-width="5.5" stroke-linecap="round" stroke-linejoin="round"/>
</svg>
