<svg width="50" height="55" viewBox="0 0 50 55" fill="none" xmlns="http://www.w3.org/2000/svg">
<mask id="mask0_561_345" style="mask-type:alpha" maskUnits="userSpaceOnUse" x="0" y="0" width="50" height="55">
<rect width="50" height="55" fill="#D9D9D9"/>
</mask>
<g mask="url(#mask0_561_345)">
<path d="M5 7.22331C5 5.25867 6.59265 3.66602 8.55729 3.66602H42.0797C44.0443 3.66602 45.637 5.25867 45.637 7.22331V47.411C45.637 49.3757 44.0443 50.9683 42.0797 50.9683H8.5573C6.59266 50.9683 5 49.3757 5 47.411V7.22331ZM16.6106 15.0186H34.0264H16.6106Z" fill="#212121"/>
<path d="M16.6106 26.3711H34.0264M16.6106 37.7237H26.286M16.6106 15.0186H34.0264M8.5573 50.9683H42.0797C44.0443 50.9683 45.637 49.3757 45.637 47.411V7.22331C45.637 5.25867 44.0443 3.66602 42.0797 3.66602H8.55729C6.59265 3.66602 5 5.25867 5 7.22331V47.411C5 49.3757 6.59266 50.9683 8.5573 50.9683Z" stroke="white" stroke-width="3.91" stroke-linecap="round" stroke-linejoin="round"/>
</g>
</svg>
