<svg width="56" height="56" viewBox="0 0 56 56" fill="none" xmlns="http://www.w3.org/2000/svg">
<mask id="mask0_200_152" style="mask-type:alpha" maskUnits="userSpaceOnUse" x="0" y="0" width="56" height="56">
<rect x="0.214844" y="0.0839844" width="55" height="55" fill="#D9D9D9"/>
</mask>
<g mask="url(#mask0_200_152)">
<path d="M50.8871 34.2997C49.7863 32.8054 47.6871 32.4824 46.1945 33.5892L36.1516 40.9867H26.0333C25.2993 40.9867 24.7664 40.3784 24.7664 39.6451C24.7664 38.911 25.3746 38.3027 26.0333 38.3027H32.5985C33.8654 38.3027 35.1784 37.3898 35.3982 36.0693C35.6709 34.3912 34.3813 32.9331 32.7453 32.9331H19.2482C17.0584 32.9331 14.7914 33.7091 13.0295 35.1354L9.12815 38.3018L4.48174 38.2262C3.82321 38.2262 3.21484 38.9142 3.21484 39.6442V47.6969C3.21484 48.4369 3.82321 49.041 4.48174 49.041H33.5197C35.368 49.041 37.2046 48.4379 38.6963 47.3404L50.0313 38.9906C51.6674 37.8906 51.9862 35.7931 50.8871 34.2997ZM26.6482 20.7666C26.0106 20.6743 25.1716 20.3722 24.4333 20.1038L24.0222 19.9611C22.9734 19.5164 21.824 20.1373 21.4548 21.1106C21.0856 22.0838 21.6328 23.3087 22.6789 23.6813L23.0695 23.8202C23.7814 24.077 24.5696 24.3316 25.3675 24.5176V25.5489C25.3675 26.6606 26.2678 27.5625 27.3794 27.5625C28.4911 27.5625 29.393 26.6606 29.393 25.5489V24.6763C31.5132 24.1962 32.9907 22.8431 33.2609 20.8404C33.9898 16.6412 29.998 15.4993 27.856 14.8877L27.4117 14.7341C25.2052 14.1082 25.331 13.8381 25.3897 13.4932C25.4867 12.9256 26.6734 12.6492 28.0922 12.8731C28.5065 12.9387 29.0461 13.0868 29.7408 13.328C30.7921 13.6872 31.9398 13.1341 32.3015 12.083C32.6631 11.0318 32.1077 9.8856 31.0564 9.52147C30.4186 9.30106 29.8885 9.15583 29.3935 9.04148V8.0976C29.3935 6.98591 28.4915 6.08398 27.3799 6.08398C26.2682 6.08398 25.3679 6.98591 25.3679 8.0976V8.98023C23.2503 9.4593 21.7652 10.8034 21.3457 12.8069C20.6997 16.9575 24.7521 18.1489 26.2791 18.6019L26.8243 18.7592C29.4806 19.5196 29.4378 19.7568 29.3698 20.1553C29.2743 20.7246 28.0913 21.0015 26.6482 20.7666Z" fill="#212121"/>
</g>
</svg>
