<svg width="50" height="50" viewBox="0 0 50 50" fill="none" xmlns="http://www.w3.org/2000/svg">
<mask id="mask0_544_770" style="mask-type:alpha" maskUnits="userSpaceOnUse" x="0" y="0" width="50" height="50">
<rect width="50" height="50" fill="#D9D9D9"/>
</mask>
<g mask="url(#mask0_544_770)">
<path d="M40.8571 -2H30.5714V8.5534C34.252 8.96245 37.7805 10.2638 40.8571 12.3468V-2ZM25.4286 -2H15.1429V12.3468C18.2195 10.2638 21.748 8.96245 25.4286 8.5534V-2ZM28 50C32.7739 50 37.3523 48.0825 40.7279 44.6693C44.1036 41.2562 46 36.6269 46 31.8C46 26.9731 44.1036 22.3438 40.7279 18.9307C37.3523 15.5175 32.7739 13.6 28 13.6C23.2261 13.6 18.6477 15.5175 15.2721 18.9307C11.8964 22.3438 10 26.9731 10 31.8C10 36.6269 11.8964 41.2562 15.2721 44.6693C18.6477 48.0825 23.2261 50 28 50ZM24.85 27.8506L28 21.4L31.15 27.8506L38.1906 28.8828L33.0966 33.906L34.3 40.9962L28 37.65L21.7026 40.9962L22.906 33.906L17.812 28.8828L24.85 27.8506Z" fill="black"/>
</g>
</svg>
