<svg width="50" height="50" viewBox="0 0 50 50" fill="none" xmlns="http://www.w3.org/2000/svg">
<path d="M38.1633 0.0257421C37.7332 0.0720215 37.3313 0.262311 37.0227 0.565774L24.9622 12.6387L18.6621 6.32932C18.4805 6.14774 18.265 6.00372 18.0279 5.90549C17.7907 5.80727 17.5365 5.75676 17.2799 5.75685C17.0232 5.75694 16.7691 5.80762 16.532 5.90601C16.2949 6.0044 16.0794 6.14857 15.898 6.33028C15.5316 6.69727 15.3259 7.1949 15.326 7.71371C15.3261 7.9706 15.3768 8.22496 15.4751 8.46226C15.5734 8.69956 15.7174 8.91516 15.899 9.09675L22.201 15.4003H5.7605C4.23272 15.4003 2.76751 16.0078 1.68721 17.089C0.606908 18.1702 0 19.6367 0 21.1658L0 44.2277C0 45.7568 0.606908 47.2232 1.68721 48.3045C2.76751 49.3857 4.23272 49.9931 5.7605 49.9931H44.1638C45.6916 49.9931 47.1568 49.3857 48.2371 48.3045C49.3174 47.2232 49.9243 45.7568 49.9243 44.2277V21.1658C49.9243 19.6367 49.3174 18.1702 48.2371 17.089C47.1568 16.0078 45.6916 15.4003 44.1638 15.4003H27.7214L39.7839 3.32936C40.0861 3.04819 40.2897 2.67708 40.3647 2.27101C40.4397 1.86494 40.382 1.4455 40.2001 1.07483C40.0183 0.70415 39.722 0.401953 39.3551 0.212998C38.9883 0.0240441 38.5704 -0.0416168 38.1633 0.0257421ZM20.1617 19.244C34.4574 19.244 36.4832 19.2843 36.4832 32.6967C36.4832 46.1111 34.3172 46.1495 20.1617 46.1495C5.94099 46.1495 3.84033 46.0073 3.84033 32.6967C3.84033 19.39 5.94099 19.244 20.1617 19.244ZM43.2037 24.8903C44.8666 24.8903 46.205 26.2279 46.205 27.8922C46.2057 28.2869 46.1286 28.6778 45.978 29.0426C45.8275 29.4074 45.6065 29.7388 45.3276 30.0179C45.0488 30.297 44.7176 30.5182 44.3531 30.6689C43.9887 30.8196 43.5981 30.8967 43.2037 30.896C42.8093 30.897 42.4186 30.82 42.054 30.6694C41.6894 30.5188 41.3582 30.2976 41.0793 30.0185C40.8004 29.7393 40.5794 29.4078 40.4289 29.0429C40.2784 28.678 40.2015 28.2869 40.2025 27.8922C40.2018 27.4975 40.2789 27.1066 40.4294 26.7418C40.58 26.377 40.801 26.0455 41.0799 25.7665C41.3587 25.4874 41.6899 25.2662 42.0543 25.1155C42.4188 24.9648 42.8094 24.8876 43.2037 24.8884V24.8903ZM43.2037 32.5776C44.8666 32.5776 46.205 33.9152 46.205 35.5795C46.2057 35.9742 46.1286 36.3651 45.978 36.7299C45.8275 37.0947 45.6065 37.4261 45.3276 37.7052C45.0488 37.9843 44.7176 38.2055 44.3531 38.3562C43.9887 38.5069 43.5981 38.584 43.2037 38.5833C42.8093 38.5843 42.4186 38.5073 42.054 38.3567C41.6894 38.2061 41.3582 37.9849 41.0793 37.7057C40.8004 37.4266 40.5794 37.0951 40.4289 36.7302C40.2784 36.3653 40.2015 35.9742 40.2025 35.5795C40.2018 35.1848 40.2789 34.7938 40.4294 34.4291C40.58 34.0643 40.801 33.7328 41.0799 33.4538C41.3587 33.1747 41.6899 32.9535 42.0543 32.8028C42.4188 32.6521 42.8094 32.5749 43.2037 32.5757V32.5776Z" fill="#212121"/>
</svg>
