<svg width="45" height="46" viewBox="0 0 45 46" fill="none" xmlns="http://www.w3.org/2000/svg">
<circle cx="22.5" cy="22.6953" r="22" stroke="white"/>
<path fill-rule="evenodd" clip-rule="evenodd" d="M19.2398 13.8906C19.6722 13.8906 20.0869 14.0968 20.3927 14.4637C20.6985 14.8306 20.8702 15.3282 20.8702 15.8471V18.7819H25.7615C26.194 18.7819 26.6087 18.9881 26.9144 19.355C27.2202 19.7219 27.392 20.2195 27.392 20.7385C27.392 21.2574 27.2202 21.755 26.9144 22.1219C26.6087 22.4888 26.194 22.695 25.7615 22.695H20.8702V24.6515C20.8702 25.4298 21.1279 26.1763 21.5866 26.7267C22.0452 27.2771 22.6673 27.5863 23.3159 27.5863H25.7615C26.194 27.5863 26.6087 27.7924 26.9144 28.1593C27.2202 28.5262 27.392 29.0239 27.392 29.5428C27.392 30.0617 27.2202 30.5593 26.9144 30.9263C26.6087 31.2932 26.194 31.4993 25.7615 31.4993H23.3159C21.8024 31.4993 20.351 30.7779 19.2808 29.4936C18.2106 28.2094 17.6094 26.4677 17.6094 24.6515V15.8471C17.6094 15.3282 17.7812 14.8306 18.0869 14.4637C18.3927 14.0968 18.8074 13.8906 19.2398 13.8906Z" fill="white"/>
</svg>
