<svg width="45" height="46" viewBox="0 0 45 46" fill="none" xmlns="http://www.w3.org/2000/svg">
<circle cx="22.5" cy="22.6953" r="22" stroke="white"/>
<path d="M32.7163 17.4957C32.628 17.1663 32.4551 16.8618 32.2124 16.6082C31.9698 16.3545 31.6646 16.1594 31.3231 16.0395C28.0372 14.8602 22.7913 14.8691 22.5031 14.8691C22.2148 14.8691 16.9689 14.8602 13.683 16.0395C13.3415 16.1594 13.0363 16.3545 12.7937 16.6082C12.551 16.8618 12.3781 17.1663 12.2898 17.4957C12.04 18.3802 11.7422 20.0061 11.7422 22.6952C11.7422 25.3843 12.04 27.0103 12.2898 27.8948C12.3781 28.2241 12.551 28.5287 12.7937 28.7823C13.0363 29.0359 13.3415 29.2311 13.683 29.351C16.8344 30.4856 21.7729 30.5213 22.4358 30.5213H22.5703C23.2333 30.5213 28.1717 30.4856 31.3231 29.351C31.6646 29.2311 31.9698 29.0359 32.2124 28.7823C32.4551 28.5287 32.628 28.2241 32.7163 27.8948C32.9661 27.0103 33.2639 25.3843 33.2639 22.6952C33.2639 20.0061 32.9661 18.3802 32.7163 17.4957V17.4957ZM25.789 22.99L21.1772 25.8489C21.116 25.8907 21.0417 25.9127 20.9658 25.9114C20.9021 25.9092 20.8398 25.894 20.7832 25.8668C20.7218 25.8371 20.6705 25.7921 20.6349 25.7369C20.5992 25.6817 20.5808 25.6184 20.5815 25.5541V19.8364C20.5808 19.772 20.5992 19.7087 20.6349 19.6535C20.6705 19.5983 20.7218 19.5534 20.7832 19.5237C20.8445 19.4933 20.9135 19.4789 20.9829 19.4821C21.0522 19.4852 21.1194 19.5058 21.1772 19.5416L25.789 22.4004C25.8426 22.4318 25.8867 22.4753 25.9173 22.5269C25.9479 22.5784 25.964 22.6363 25.964 22.6952C25.964 22.7541 25.9479 22.812 25.9173 22.8636C25.8867 22.9152 25.8426 22.9587 25.789 22.99Z" fill="white"/>
</svg>
