<svg width="51" height="51" viewBox="0 0 51 51" fill="none" xmlns="http://www.w3.org/2000/svg">
<mask id="mask0_1932_3968" style="mask-type:alpha" maskUnits="userSpaceOnUse" x="0" y="0" width="51" height="51">
<rect x="0.710938" y="0.229492" width="50" height="50" fill="#F2F2F2"/>
</mask>
<g mask="url(#mask0_1932_3968)">
<path d="M32.7422 31.7764C34.5534 31.7764 36.0234 33.2449 36.0234 35.0543V38.8043L36.0084 39.0066C35.4272 42.9907 31.8459 44.905 25.8366 44.905C19.8497 44.905 16.2103 43.0132 15.4247 39.0759L15.3984 38.8005V35.0543C15.3984 33.2449 16.8684 31.7764 18.6797 31.7764H32.7422ZM33.6684 20.5377H44.9297C46.7409 20.5377 48.2109 22.0062 48.2109 23.8156V27.5656L48.1959 27.7679C47.6147 31.752 44.0334 33.6663 38.0241 33.6663L37.7091 33.6626C37.42 32.636 36.8194 31.7243 35.9899 31.053C35.1605 30.3817 34.143 29.9839 33.0778 29.9145L32.7422 29.9032H31.0134C31.9932 29.114 32.7834 28.1154 33.326 26.9808C33.8685 25.8463 34.1495 24.6047 34.1484 23.3473C34.1484 22.3621 33.9797 21.418 33.6684 20.5377ZM6.49219 20.5377H17.7534C17.4422 21.418 17.2734 22.3621 17.2734 23.3473C17.2734 25.8386 18.3572 28.0807 20.0784 29.6223L20.4084 29.9032H18.6797C16.3134 29.9032 14.3184 31.4954 13.7109 33.6682L13.6491 33.6663C7.66219 33.6663 4.02281 31.7745 3.23719 27.8372L3.21094 27.5618V23.8156C3.21094 22.0062 4.68094 20.5377 6.49219 20.5377ZM25.7109 16.7914C27.4514 16.7914 29.1206 17.4821 30.3513 18.7116C31.582 19.9411 32.2734 21.6086 32.2734 23.3473C32.2734 25.0861 31.582 26.7536 30.3513 27.9831C29.1206 29.2125 27.4514 29.9032 25.7109 29.9032C23.9705 29.9032 22.3013 29.2125 21.0705 27.9831C19.8398 26.7536 19.1484 25.0861 19.1484 23.3473C19.1484 21.6086 19.8398 19.9411 21.0705 18.7116C22.3013 17.4821 23.9705 16.7914 25.7109 16.7914ZM37.8984 5.55273C39.6389 5.55273 41.3081 6.24344 42.5388 7.47291C43.7695 8.70239 44.4609 10.3699 44.4609 12.1086C44.4609 13.8474 43.7695 15.5149 42.5388 16.7444C41.3081 17.9738 39.6389 18.6645 37.8984 18.6645C36.158 18.6645 34.4888 17.9738 33.258 16.7444C32.0273 15.5149 31.3359 13.8474 31.3359 12.1086C31.3359 10.3699 32.0273 8.70239 33.258 7.47291C34.4888 6.24344 36.158 5.55273 37.8984 5.55273ZM13.5234 5.55273C15.2639 5.55273 16.9331 6.24344 18.1638 7.47291C19.3945 8.70239 20.0859 10.3699 20.0859 12.1086C20.0859 13.8474 19.3945 15.5149 18.1638 16.7444C16.9331 17.9738 15.2639 18.6645 13.5234 18.6645C11.783 18.6645 10.1138 17.9738 8.88305 16.7444C7.65234 15.5149 6.96094 13.8474 6.96094 12.1086C6.96094 10.3699 7.65234 8.70239 8.88305 7.47291C10.1138 6.24344 11.783 5.55273 13.5234 5.55273Z" fill="#F2F2F2"/>
</g>
</svg>
