<svg width="51" height="51" viewBox="0 0 51 51" fill="none" xmlns="http://www.w3.org/2000/svg">
<mask id="mask0_1932_3974" style="mask-type:alpha" maskUnits="userSpaceOnUse" x="0" y="0" width="51" height="51">
<rect x="0.710938" y="0.229492" width="50" height="50" fill="#F2F2F2"/>
</mask>
<g mask="url(#mask0_1932_3974)">
<path d="M24.0443 0.229492V6.88946H27.3776V0.229492H24.0443ZM11.8909 12.3706L6.89094 7.37564L4.53094 9.73327L9.53094 14.7282L11.8909 12.3706ZM41.8909 14.7282L46.8909 9.73327L44.5309 7.37564L39.5309 12.3706L41.8909 14.7282ZM25.7109 10.2194C22.5334 10.2189 19.4624 11.3637 17.062 13.4436C14.6615 15.5236 13.0929 18.3989 12.6443 21.5414L12.6109 21.7745C12.3576 23.5252 12.4602 25.309 12.9126 27.0191C13.3651 28.7293 14.1581 30.3308 15.2443 31.7278C16.5209 33.3761 17.3776 34.9512 17.3776 36.5296V41.8543C17.3776 42.2959 17.5532 42.7194 17.8658 43.0316C18.1783 43.3439 18.6022 43.5193 19.0443 43.5193H32.3776C32.8196 43.5193 33.2436 43.3439 33.5561 43.0316C33.8687 42.7194 34.0443 42.2959 34.0443 41.8543V36.5296C34.0443 34.9512 34.9009 33.3761 36.1776 31.7278C38.2776 29.0172 39.3376 25.4841 38.8109 21.7712L38.7776 21.5381C38.3282 18.3961 36.7593 15.5216 34.3589 13.4424C31.9586 11.3632 28.888 10.2188 25.7109 10.2194ZM0.710938 26.8694H7.3776V23.5394H0.710938V26.8694ZM44.0443 26.8694H50.7109V23.5394H44.0443V26.8694ZM20.7109 50.1792H30.7109V46.8493H20.7109V50.1792Z" fill="#F2F2F2"/>
</g>
</svg>
