<svg width="51" height="51" viewBox="0 0 51 51" fill="none" xmlns="http://www.w3.org/2000/svg">
<mask id="mask0_1932_3971" style="mask-type:alpha" maskUnits="userSpaceOnUse" x="0" y="0" width="51" height="51">
<rect x="0.710938" y="0.229492" width="50" height="50" fill="#F2F2F2"/>
</mask>
<g mask="url(#mask0_1932_3971)">
<path d="M46.374 18.5696L46.374 18.5697C45.5684 21.9341 43.1898 24.7236 40.1132 26.1952L38.7143 24.7977C36.9424 23.0274 34.5822 22.053 32.0744 22.053C31.4366 22.053 30.786 22.1195 30.1388 22.3017L23.5455 15.708C23.5448 15.1218 23.5754 14.5415 23.6774 13.9527L23.6775 13.9527L23.6787 13.9448C24.3873 9.43013 27.8579 5.65023 32.3033 4.58769L32.3033 4.58767C34.2345 4.12588 36.0996 4.15771 37.8143 4.56952L37.8145 4.56957C38.3315 4.6935 38.5321 5.37222 38.1322 5.77175L32.3462 11.5524L32.1996 11.6989V11.9062V18.174V18.674H32.6996H39.0483H39.2552L39.4017 18.5277L45.1876 12.7471C45.5884 12.3469 46.2682 12.5486 46.3921 13.0642L46.3921 13.0643C46.8043 14.7773 46.8361 16.6404 46.374 18.5696ZM36.1046 27.4793L36.1075 27.4821L45.9374 37.146C45.9381 37.1467 45.9387 37.1473 45.9394 37.148C46.9627 38.1816 46.9598 39.8428 45.9391 40.8625L41.5094 45.2882L41.5093 45.2882C40.488 46.3088 38.8228 46.3111 37.7891 45.2877C37.7888 45.2874 37.7885 45.2872 37.7883 45.2869L27.9646 35.4638L27.9644 35.4637C26.1781 33.679 25.8336 31.0251 26.8916 28.8739L27.0497 28.5524L26.7962 28.2993L17.8358 19.3556L17.6895 19.2095L17.4827 19.2095L12.5215 19.2089L4.87432 9.09356L9.62883 4.4102L19.7589 12.0537V17.0073V17.2156L19.9068 17.3623L28.9352 26.3144L29.188 26.5651L29.5076 26.4082C31.6614 25.3508 34.3183 25.6946 36.1046 27.4793ZM13.5333 44.6945L13.5332 44.6946C12.5239 45.7036 11.2041 46.2078 9.87937 46.2078C8.55464 46.2078 7.23469 45.703 6.22693 44.6969C4.20808 42.6797 4.20812 39.4133 6.22707 37.3962L18.3781 25.2563L22.8021 29.6688C22.4382 31.462 22.6571 33.2738 23.3005 34.9363L13.5333 44.6945ZM7.07001 41.3382C7.07001 42.7264 8.19705 43.8518 9.58545 43.8518C10.9732 43.8518 12.1009 42.7313 12.1009 41.3382C12.1009 39.9451 10.9732 38.8246 9.58545 38.8246C8.19718 38.8246 7.07001 39.949 7.07001 41.3382Z" fill="#F2F2F2" stroke="#F2F2F2"/>
</g>
</svg>
