<svg width="22" height="22" viewBox="0 0 22 22" fill="none" xmlns="http://www.w3.org/2000/svg">
<path d="M20.1857 20.7938C19.7952 21.1843 19.162 21.1843 18.7715 20.7938L1.62417 3.64642C1.23365 3.2559 1.23365 2.62274 1.62417 2.23221L2.27236 1.58403C2.66288 1.19351 3.29604 1.19351 3.68657 1.58403L20.8339 18.7314C21.2244 19.1219 21.2244 19.7551 20.8339 20.1456L20.1857 20.7938Z" fill="#F2F2F2"/>
<path d="M2.27521 20.7938C2.66573 21.1843 3.2989 21.1843 3.68942 20.7938L20.8368 3.64642C21.2273 3.2559 21.2273 2.62274 20.8368 2.23221L20.1886 1.58403C19.7981 1.19351 19.1649 1.19351 18.7744 1.58403L1.62703 18.7314C1.2365 19.1219 1.2365 19.7551 1.62703 20.1456L2.27521 20.7938Z" fill="#F2F2F2"/>
</svg>
