<svg width="46" height="46" viewBox="0 0 46 46" fill="none" xmlns="http://www.w3.org/2000/svg">
<circle cx="23" cy="23" r="22.5" stroke="#212121"/>
<path d="M30.9444 22.4711H33.0628C33.0628 17.0374 28.9606 12.9395 23.5195 12.9395V15.0578C27.822 15.0578 30.9444 18.175 30.9444 22.4711Z" fill="#212121"/>
<path d="M23.5297 19.2911C25.7571 19.2911 26.7072 20.2412 26.7072 22.4686H28.8256C28.8256 19.0528 26.9456 17.1727 23.5297 17.1727V19.2911ZM27.1542 25.0562C26.9507 24.8712 26.6832 24.7726 26.4083 24.7811C26.1334 24.7896 25.8726 24.9046 25.6809 25.1018L23.1462 27.7084C22.5362 27.5919 21.3096 27.2096 20.0471 25.9502C18.7845 24.6866 18.4021 23.4569 18.2888 22.851L20.8934 20.3153C21.0908 20.1237 21.206 19.8628 21.2145 19.5879C21.223 19.3129 21.1241 19.0454 20.9389 18.842L17.0252 14.5385C16.8399 14.3344 16.5823 14.2107 16.3072 14.1935C16.0321 14.1763 15.7612 14.267 15.5519 14.4463L13.2534 16.4175C13.0703 16.6013 12.961 16.8459 12.9463 17.1049C12.9304 17.3697 12.6275 23.6422 17.4912 28.5081C21.7344 32.7502 27.0494 33.0605 28.5132 33.0605C28.7271 33.0605 28.8584 33.0542 28.8934 33.052C29.1524 33.0375 29.3969 32.9278 29.5798 32.7438L31.5498 30.4443C31.7293 30.2352 31.8202 29.9643 31.8032 29.6892C31.7862 29.4141 31.6626 29.1564 31.4588 28.971L27.1542 25.0562Z" fill="#212121"/>
</svg>
