<svg width="24" height="25" viewBox="0 0 24 25" fill="none" xmlns="http://www.w3.org/2000/svg">
<path d="M12 2.55469C6.486 2.55469 2 7.04069 2 12.5547C2 18.0687 6.486 22.5547 12 22.5547C17.514 22.5547 22 18.0687 22 12.5547C22 7.04069 17.514 2.55469 12 2.55469ZM12 20.5547C7.589 20.5547 4 16.9657 4 12.5547C4 8.14369 7.589 4.55469 12 4.55469C16.411 4.55469 20 8.14369 20 12.5547C20 16.9657 16.411 20.5547 12 20.5547Z" fill="#212121"/>
<path d="M11 11.5547H13V17.5547H11V11.5547ZM11 7.55469H13V9.55469H11V7.55469Z" fill="#212121"/>
</svg>
