<svg width="47" height="47" viewBox="0 0 47 47" fill="none" xmlns="http://www.w3.org/2000/svg">
<circle cx="23.3062" cy="23.3062" r="22.8062" stroke="#212121"/>
<path d="M22.0472 36.1841C19.275 32.7938 13.1094 24.5769 13.1094 19.9614C13.1094 14.3617 17.6744 9.82227 23.3058 9.82227C28.9351 9.82227 33.5023 14.3617 33.5023 19.9614C33.5023 24.5769 27.2888 32.7938 24.5644 36.1841C23.9112 36.992 22.7004 36.992 22.0472 36.1841ZM23.3058 23.3411C25.1805 23.3411 26.7046 21.8256 26.7046 19.9614C26.7046 18.0973 25.1805 16.5817 23.3058 16.5817C21.4312 16.5817 19.907 18.0973 19.907 19.9614C19.907 21.8256 21.4312 23.3411 23.3058 23.3411Z" fill="#212121"/>
</svg>
