<svg width="34" height="33" viewBox="0 0 34 33" fill="none" xmlns="http://www.w3.org/2000/svg">
<path opacity="0.8" d="M26.3547 0.507812H7.58307C3.88103 0.507812 0.878906 3.49315 0.878906 7.17448V25.8411C0.878906 29.5225 3.88103 32.5078 7.58307 32.5078H26.3547C30.0581 32.5078 33.0589 29.5225 33.0589 25.8411V7.17448C33.0589 3.49315 30.0581 0.507812 26.3547 0.507812ZM11.6056 25.8411H7.58307V11.1745H11.6056V25.8411ZM9.59431 9.48381C8.29907 9.48381 7.24786 8.43048 7.24786 7.13181C7.24786 5.83315 8.29907 4.77981 9.59431 4.77981C10.8896 4.77981 11.9408 5.83315 11.9408 7.13181C11.9408 8.43048 10.8909 9.48381 9.59431 9.48381ZM27.6955 25.8411H23.673V18.3691C23.673 13.8785 18.3097 14.2185 18.3097 18.3691V25.8411H14.2872V11.1745H18.3097V13.5278C20.1815 10.0798 27.6955 9.82515 27.6955 16.8291V25.8411Z" fill="#212121"/>
</svg>
