<svg width="36" height="36" viewBox="0 0 36 36" fill="none" xmlns="http://www.w3.org/2000/svg">
<circle cx="17.5586" cy="17.8047" r="17" stroke="#212121"/>
<path d="M23.6836 11.6797H11.4336C10.5914 11.6797 9.91 12.3687 9.91 13.2109L9.90234 22.3984C9.90234 23.2406 10.5914 23.9297 11.4336 23.9297H23.6836C24.5258 23.9297 25.2148 23.2406 25.2148 22.3984V13.2109C25.2148 12.3687 24.5258 11.6797 23.6836 11.6797ZM23.3773 14.9336L17.9644 18.3177C17.7194 18.4708 17.3978 18.4708 17.1528 18.3177L11.7398 14.9336C11.6631 14.8905 11.5958 14.8323 11.5422 14.7624C11.4886 14.6926 11.4497 14.6126 11.4279 14.5273C11.4061 14.442 11.4018 14.3532 11.4153 14.2662C11.4289 14.1792 11.4599 14.0959 11.5065 14.0212C11.5532 13.9465 11.6145 13.8821 11.6868 13.8319C11.7591 13.7816 11.8408 13.7465 11.927 13.7287C12.0133 13.711 12.1022 13.7109 12.1885 13.7285C12.2747 13.7461 12.3565 13.781 12.4289 13.8311L17.5586 17.0391L22.6883 13.8311C22.7607 13.781 22.8425 13.7461 22.9287 13.7285C23.015 13.7109 23.1039 13.711 23.1902 13.7287C23.2764 13.7465 23.3581 13.7816 23.4304 13.8319C23.5027 13.8821 23.564 13.9465 23.6106 14.0212C23.6573 14.0959 23.6883 14.1792 23.7018 14.2662C23.7154 14.3532 23.7111 14.442 23.6893 14.5273C23.6675 14.6126 23.6286 14.6926 23.575 14.7624C23.5213 14.8323 23.4541 14.8905 23.3773 14.9336Z" fill="#212121"/>
</svg>
