<svg width="51" height="51" viewBox="0 0 51 51" fill="none" xmlns="http://www.w3.org/2000/svg">
<mask id="mask0_1932_3977" style="mask-type:alpha" maskUnits="userSpaceOnUse" x="0" y="0" width="51" height="51">
<rect x="0.710938" y="0.229492" width="50" height="50" fill="#F2F2F2"/>
</mask>
<g mask="url(#mask0_1932_3977)">
<path d="M39.7734 9.63443C39.7734 8.51667 40.2179 7.4447 41.0091 6.65432C41.8003 5.86395 42.8733 5.41992 43.9922 5.41992C45.1111 5.41992 46.1841 5.86395 46.9753 6.65432C47.7665 7.4447 48.2109 8.51667 48.2109 9.63443V40.5408C48.2109 41.6586 47.7665 42.7306 46.9753 43.521C46.1841 44.3113 45.1111 44.7554 43.9922 44.7554C42.8733 44.7554 41.8003 44.3113 41.0091 43.521C40.2179 42.7306 39.7734 41.6586 39.7734 40.5408V9.63443ZM36.9609 11.6686C31.1475 14.3378 24.195 15.8298 17.2734 16.3215V33.8454C18.295 33.9029 19.3153 33.9826 20.3334 34.0842C26.1075 34.6574 31.6903 35.9611 36.9609 38.4673V11.6686ZM14.4609 33.6993V16.4732C12.5484 16.549 10.5262 16.594 8.81344 16.6221C7.32377 16.6427 5.90181 17.2471 4.8539 18.305C3.80598 19.3629 3.21596 20.7897 3.21094 22.278V27.8973C3.21094 31.0048 5.73094 33.5054 8.81906 33.5419C9.28409 33.5477 9.74909 33.5552 10.2141 33.5644C11.6302 33.5927 13.0459 33.6376 14.4609 33.6993ZM18.3703 36.7365C19.1719 36.7955 19.9706 36.8686 20.7609 36.9557L21.4725 41.704C21.5499 42.1104 21.5366 42.5288 21.4334 42.9294C21.3303 43.33 21.1399 43.7029 20.8758 44.0215C20.6117 44.3401 20.2804 44.5965 19.9056 44.7724C19.5309 44.9483 19.1219 45.0394 18.7078 45.0391H17.1666C16.6199 45.0391 16.085 44.8799 15.6275 44.581C15.17 44.2821 14.8095 43.8564 14.5903 43.3561L10.8947 36.3881C12.4816 36.4277 14.068 36.4876 15.6534 36.568C16.5731 36.6157 17.4816 36.6719 18.3703 36.7365Z" fill="#F2F2F2"/>
</g>
</svg>
