<svg width="36" height="36" viewBox="0 0 36 36" fill="none" xmlns="http://www.w3.org/2000/svg">
<circle cx="17.5586" cy="17.8047" r="17" stroke="#212121"/>
<path d="M23.6025 17.4008H25.2143C25.2143 13.2665 22.0931 10.1484 17.9531 10.1484V11.7602C21.2267 11.7602 23.6025 14.132 23.6025 17.4008Z" fill="#212121"/>
<path d="M17.9616 14.9817C19.6564 14.9817 20.3793 15.7046 20.3793 17.3995H21.9911C21.9911 14.8004 20.5606 13.3699 17.9616 13.3699V14.9817ZM20.7194 19.3683C20.5646 19.2275 20.3611 19.1525 20.1519 19.1589C19.9427 19.1654 19.7443 19.2529 19.5984 19.4029L17.6699 21.3863C17.2057 21.2976 16.2724 21.0067 15.3118 20.0485C14.3512 19.087 14.0602 18.1514 13.974 17.6904L15.9557 15.761C16.1059 15.6153 16.1936 15.4168 16.2 15.2076C16.2065 14.9983 16.1313 14.7948 15.9904 14.64L13.0126 11.3657C12.8716 11.2104 12.6756 11.1162 12.4663 11.1031C12.257 11.09 12.0508 11.1591 11.8915 11.2955L10.1427 12.7953C10.0034 12.9352 9.92024 13.1213 9.90902 13.3184C9.89693 13.5198 9.66644 18.2924 13.3672 21.9947C16.5956 25.2224 20.6396 25.4585 21.7534 25.4585C21.9162 25.4585 22.0161 25.4537 22.0427 25.452C22.2398 25.441 22.4258 25.3575 22.5649 25.2175L24.0639 23.4679C24.2005 23.3088 24.2696 23.1027 24.2567 22.8933C24.2438 22.684 24.1497 22.488 23.9946 22.3469L20.7194 19.3683Z" fill="#212121"/>
</svg>
